<?xml version="1.0" standalone="no"?>
<!DOCTYPE svg PUBLIC "-//W3C//DTD SVG 20010904//EN"
 "http://www.w3.org/TR/2001/REC-SVG-20010904/DTD/svg10.dtd">
<svg version="1.0" xmlns="http://www.w3.org/2000/svg"
 width="236.000000pt" height="236.000000pt" viewBox="0 0 236.000000 236.000000"
 preserveAspectRatio="xMidYMid meet">

<g transform="translate(0.000000,236.000000) scale(0.100000,-0.100000)"
fill="#000000" stroke="none">
<path d="M1113 1726 c-19 -23 -21 -24 -37 -8 -17 17 -26 12 -40 -23 -2 -6 -9
-5 -17 3 -17 16 -39 15 -39 -2 0 -7 -13 -16 -28 -19 -29 -6 -82 -49 -82 -67 0
-14 20 -12 50 5 40 23 67 19 73 -10 3 -21 -3 -31 -28 -51 -18 -14 -44 -40 -57
-59 -19 -29 -29 -35 -58 -35 -47 0 -78 -23 -85 -63 -8 -39 -79 -88 -110 -76
-42 16 -73 10 -99 -22 -47 -56 -23 -139 45 -154 23 -5 34 -16 46 -46 14 -37
56 -82 85 -91 11 -4 11 -8 0 -20 -7 -9 -12 -20 -11 -24 2 -5 -5 -33 -14 -63
-22 -70 -22 -68 11 -89 15 -9 28 -23 30 -30 1 -8 -2 -11 -8 -7 -12 7 -42 -13
-36 -24 3 -4 0 -13 -6 -21 -8 -13 -9 -12 -5 1 4 12 -2 18 -21 22 -32 6 -97
-14 -97 -30 0 -6 -3 -15 -7 -19 -17 -16 16 -34 62 -34 46 0 80 20 80 47 0 11
32 43 43 43 4 0 7 -6 7 -13 0 -18 28 -75 41 -83 5 -3 30 -7 54 -9 25 -2 55
-11 67 -19 35 -25 74 -20 108 14 29 28 36 30 105 30 68 0 75 -2 95 -27 20 -26
27 -28 103 -29 45 -1 73 2 62 6 -11 4 -45 5 -77 4 -54 -4 -58 -2 -79 29 -13
17 -33 42 -46 54 -13 12 -23 33 -23 47 0 21 5 25 30 24 16 -1 36 4 43 10 17
15 27 6 27 -24 0 -25 61 -60 82 -48 7 5 32 9 56 10 61 4 77 11 90 39 15 33 79
51 104 28 22 -19 23 -36 4 -53 -8 -6 -12 -18 -9 -26 8 -22 -16 -44 -49 -44
-16 0 -36 -7 -44 -15 -9 -8 -25 -15 -37 -15 -12 0 -29 -5 -37 -10 -24 -16 51
0 77 16 12 8 33 14 47 14 27 0 56 24 56 46 0 8 5 23 12 33 17 28 -4 69 -39 77
-15 4 -54 31 -85 62 -64 62 -82 107 -53 128 10 8 15 20 11 29 -3 9 3 34 14 56
l21 39 -25 25 c-14 14 -31 25 -38 25 -9 0 -9 3 0 12 7 7 12 23 12 36 0 13 9
35 19 48 18 22 18 28 6 57 -9 21 -10 38 -4 48 15 25 10 64 -11 77 -11 7 -20
20 -20 30 0 26 -29 62 -50 62 -10 0 -27 15 -39 36 -16 26 -27 34 -43 32 -21
-3 -23 2 -26 47 -4 58 -6 62 -27 45 -13 -11 -18 -10 -29 5 -10 14 -17 16 -32
7 -14 -8 -23 -7 -35 4 -15 13 -19 12 -36 -10z m53 -48 c-2 -9 1 -24 8 -33 16
-22 46 -9 46 20 0 12 9 30 20 40 20 18 20 17 20 -23 0 -22 3 -48 6 -56 9 -24
-54 -46 -153 -53 -76 -5 -87 -4 -99 12 -26 35 -18 48 25 41 40 -6 70 12 56 34
-3 6 4 27 16 46 l22 36 19 -23 c10 -13 16 -32 14 -41z m-86 6 c0 -8 -19 -13
-24 -6 -3 5 1 9 9 9 8 0 15 -2 15 -3z m-22 -27 c36 -17 26 -22 -43 -19 -43 3
-74 -1 -95 -11 -16 -9 -30 -12 -30 -8 0 17 42 45 78 51 39 7 53 5 90 -13z
m282 -77 l22 -31 -38 26 c-50 34 -51 35 -26 35 12 0 30 -13 42 -30z m-70 4 c0
-23 -179 -54 -234 -40 -51 13 -24 21 72 21 56 1 105 6 117 13 21 12 45 16 45
6z m63 -29 c57 -39 89 -112 94 -210 4 -80 4 -80 -13 -50 -12 21 -19 26 -22 15
-2 -8 -14 -31 -25 -50 -18 -30 -19 -33 -3 -20 10 8 22 23 27 35 7 14 8 4 5
-32 -3 -29 -15 -74 -28 -100 -31 -67 -32 -71 -10 -47 18 21 19 22 31 3 23 -39
-22 -73 -99 -75 -118 -3 -117 -3 -97 -18 9 -7 17 -25 17 -39 0 -24 -2 -25 -42
-20 -24 3 -44 7 -46 8 -1 1 3 14 9 29 10 21 10 34 1 60 -7 18 -12 40 -12 48 0
14 47 40 77 42 6 1 15 5 19 9 4 4 18 7 30 7 13 0 26 5 29 10 14 23 22 -2 14
-41 -6 -23 -8 -44 -5 -46 7 -8 66 37 66 50 0 6 -14 -2 -32 -19 -25 -23 -30
-25 -24 -9 4 11 9 49 11 85 1 36 1 51 -2 33 -4 -30 -22 -44 -58 -48 -32 -3
-103 -31 -122 -48 -14 -12 -23 -15 -23 -8 0 6 -8 15 -17 18 -10 4 -24 13 -31
20 -7 7 -25 14 -40 14 -20 1 -17 4 13 9 l40 7 -36 2 c-23 0 -39 7 -43 17 -11
29 -6 37 12 21 35 -32 102 -12 102 29 0 8 5 12 10 9 6 -3 10 -1 10 6 0 9 3 9
15 -1 12 -10 17 -5 29 24 10 25 21 36 35 36 27 0 26 -4 -4 -34 -16 -16 -23
-31 -18 -43 10 -29 24 -43 44 -43 11 0 19 -4 19 -10 0 -20 28 -9 33 13 3 12 8
32 12 44 5 15 0 28 -15 43 -12 12 -19 25 -15 28 4 4 20 -9 36 -28 l29 -34 0
57 c0 36 4 56 10 52 6 -3 10 -2 10 4 0 16 -56 51 -92 56 -32 5 -32 5 7 -10 54
-21 62 -33 55 -80 l-6 -40 -23 53 c-13 28 -27 52 -32 52 -4 0 -9 -24 -11 -52
l-3 -53 -22 61 c-16 47 -18 65 -10 74 9 8 8 10 -5 5 -10 -4 -18 -16 -18 -28 0
-11 -7 -47 -16 -79 -14 -47 -19 -56 -30 -47 -11 9 -14 8 -14 -2 0 -30 -20 10
-38 76 -20 71 -23 71 -41 -1 -12 -45 -51 -92 -51 -61 0 10 7 17 15 17 12 0 14
7 9 28 -16 64 -21 68 -28 19 -4 -25 -11 -49 -15 -52 -5 -2 -6 -17 -4 -32 5
-28 5 -28 -16 5 -16 25 -19 37 -11 52 17 31 11 67 -15 98 -14 17 -25 34 -25
39 0 5 20 28 44 52 41 41 46 43 61 27 29 -29 233 -12 268 23 15 15 17 15 60
-14z m64 -13 c6 -4 15 -21 19 -37 4 -16 16 -37 27 -46 16 -12 18 -22 13 -44
-7 -28 -8 -27 -31 29 -13 32 -34 69 -46 82 -16 17 -18 24 -8 24 8 0 19 -4 26
-8z m-483 -123 c29 -34 32 -56 12 -84 -12 -17 -10 -25 15 -70 37 -65 37 -80 1
-81 -25 -1 -28 2 -24 23 5 27 -18 32 -38 8 -14 -17 -5 -35 17 -35 13 0 12 -5
-7 -25 -13 -14 -31 -25 -40 -25 -10 0 -28 -8 -41 -19 -14 -10 -40 -23 -59 -29
-19 -5 -43 -13 -53 -17 -14 -6 -21 2 -37 38 -16 36 -27 47 -51 52 -61 14 -84
66 -54 125 18 36 45 45 89 30 30 -10 38 -8 71 15 21 14 41 25 45 25 4 0 11 16
14 35 13 69 94 89 140 34z m156 -69 c0 -11 -4 -20 -10 -20 -5 0 -10 9 -10 20
0 11 5 20 10 20 6 0 10 -9 10 -20z m130 0 c0 -11 -4 -20 -10 -20 -5 0 -10 9
-10 20 0 11 5 20 10 20 6 0 10 -9 10 -20z m80 -22 c0 -4 -7 -5 -15 -2 -8 4
-15 16 -15 28 1 21 1 21 15 2 8 -11 15 -23 15 -28z m180 -10 c0 -9 -4 -20 -10
-23 -6 -4 -10 9 -10 32 0 28 3 34 10 23 5 -8 10 -23 10 -32z m-380 -2 c0 -2 3
-11 6 -20 5 -13 2 -13 -20 -3 -31 14 -34 27 -6 27 11 0 20 -2 20 -4z m350 -92
c0 -8 -4 -14 -10 -14 -5 0 -10 9 -10 21 0 11 5 17 10 14 6 -3 10 -13 10 -21z
m-172 -1 c-14 -18 -43 -16 -58 3 -12 13 -8 15 28 13 33 -2 39 -6 30 -16z
m-188 -3 c-18 -12 -47 -13 -54 -2 -2 4 12 9 32 10 28 2 33 0 22 -8z m-115 -58
c6 -4 10 -14 10 -22 0 -10 8 -14 25 -12 14 1 34 -4 45 -13 19 -15 18 -15 -20
-9 -22 4 -44 7 -50 6 -42 -5 -74 -19 -97 -44 -28 -30 -35 -33 -56 -19 -21 13
-4 60 24 67 12 3 27 3 33 0 6 -4 17 7 26 24 15 29 39 38 60 22z m111 -38 c40
-31 44 -47 9 -38 -21 5 -25 3 -25 -15 0 -12 -7 -24 -15 -27 -10 -4 -13 -13
-10 -25 10 -30 -8 -22 -47 19 -47 49 -39 67 25 58 70 -11 70 23 0 44 l-28 8
28 1 c16 1 43 -10 63 -25z m-147 -50 c-7 -9 -26 -22 -42 -31 l-30 -15 24 29
c13 16 32 30 42 30 15 2 16 -1 6 -13z m-150 -30 c-23 -23 -29 -24 -49 -14 -31
17 -5 35 55 39 18 1 17 -1 -6 -25z m343 9 c23 -21 23 -45 -1 -74 -16 -21 -22
-22 -45 -11 -29 13 -37 58 -12 68 8 3 12 12 9 20 -7 20 26 18 49 -3z m-308
-12 c3 -5 -3 -11 -15 -14 -16 -4 -18 -3 -8 9 13 16 16 17 23 5z m164 -14 c11
-12 28 -39 37 -60 15 -35 14 -37 -4 -37 -23 0 -32 19 -19 43 5 10 5 17 -1 17
-13 0 -22 -30 -16 -51 6 -18 17 -22 70 -32 18 -3 16 -7 -17 -39 l-38 -36 16
-38 c13 -30 13 -38 2 -45 -7 -5 -20 -6 -29 -4 -9 3 -22 -1 -28 -9 -24 -28 -41
-7 -41 49 0 53 0 54 33 58 27 4 25 4 -8 4 -52 -1 -63 7 -58 37 4 17 -2 30 -16
42 -14 12 -21 30 -21 54 0 33 3 37 43 52 58 22 70 21 95 -5z m-192 -26 c34 28
52 -8 38 -80 -6 -31 -38 -45 -46 -20 -4 13 -48 -9 -48 -25 0 -4 7 -3 15 4 11
9 18 10 29 1 8 -6 20 -10 27 -9 16 3 13 -29 -3 -49 -14 -18 -48 -16 -69 3 -16
14 -16 20 -4 60 7 25 20 56 29 69 21 31 20 41 -1 24 -15 -13 -15 -12 -2 9 8
12 16 17 17 12 3 -7 8 -7 18 1z m469 -27 c-15 -15 -15 -18 2 -34 10 -10 20
-16 23 -14 3 1 6 -6 7 -16 1 -15 -4 -12 -27 13 -21 24 -26 36 -19 49 5 10 14
18 20 18 6 0 3 -7 -6 -16z m-178 -19 l26 -14 -27 -7 c-19 -5 -31 -2 -37 7 -12
19 -11 42 1 34 6 -3 22 -12 37 -20z m96 -32 c-3 -10 -11 -24 -17 -32 -6 -8
-11 -23 -11 -34 0 -28 -20 -32 -44 -8 -42 42 -17 90 46 91 27 0 31 -3 26 -17z
m77 -13 c22 -22 26 -60 10 -91 -8 -14 -21 -19 -48 -19 -49 0 -70 13 -53 33 8
10 9 17 1 22 -15 9 -12 25 5 25 8 0 15 9 15 19 0 34 41 40 70 11z m-390 -20
c0 -19 -17 -36 -26 -27 -3 2 -2 16 2 31 7 28 24 26 24 -4z m654 -43 l25 -23
-22 -14 c-34 -22 -48 -22 -35 0 7 10 18 16 26 12 10 -3 13 -1 8 6 -4 7 -16 12
-26 12 -20 0 -33 13 -23 24 11 10 21 7 47 -17z m-676 -9 c-2 -6 -10 -14 -16
-16 -7 -2 -10 2 -6 12 7 18 28 22 22 4z m270 -14 c36 -17 39 -36 17 -81 -13
-27 -63 -71 -68 -61 -1 2 -10 25 -19 51 -13 41 -14 49 -2 54 8 3 14 11 14 17
0 10 19 36 25 36 1 0 16 -7 33 -16z m202 -28 c0 -6 -7 -1 -15 10 -8 10 -15 23
-15 28 0 6 7 1 15 -10 8 -10 15 -23 15 -28z m54 22 c-2 -13 -2 -18 1 -12 8 16
45 5 45 -12 0 -7 -11 -16 -25 -20 -14 -3 -25 -12 -25 -20 0 -17 -1 -17 -34 -4
-14 5 -26 15 -25 22 0 10 2 10 6 1 8 -22 23 -14 23 11 0 14 7 32 16 40 21 21
23 20 18 -6z m116 8 c0 -2 -8 -10 -17 -17 -16 -13 -17 -12 -4 4 13 16 21 21
21 13z m-615 -42 c18 -4 24 -15 30 -51 4 -25 9 -51 12 -59 4 -10 -6 -12 -41
-9 -55 4 -66 10 -66 35 0 10 -4 22 -10 25 -26 16 9 81 38 70 8 -3 24 -8 37
-11z m620 -6 c5 4 5 1 1 -5 -10 -18 -23 -16 -30 3 -5 13 -4 14 7 6 8 -7 18 -8
22 -4z m-82 -25 c-7 -2 -19 -2 -25 0 -7 3 -2 5 12 5 14 0 19 -2 13 -5z m-367
-48 c8 -44 -16 -75 -57 -75 -29 0 -50 22 -64 67 -5 18 -3 22 9 17 9 -4 22 -2
29 4 6 6 23 12 37 15 14 2 28 5 32 6 4 0 10 -15 14 -34z"/>
<path d="M820 1410 c-34 -34 -26 -54 25 -66 50 -11 65 -4 65 31 0 25 -29 55
-53 55 -9 0 -26 -9 -37 -20z m57 2 c6 -4 12 -14 13 -22 5 -34 0 -40 -32 -33
-46 8 -53 18 -29 42 23 23 30 25 48 13z"/>
<path d="M575 1256 c-13 -20 -14 -29 -5 -46 9 -17 59 -47 64 -38 1 2 7 23 13
48 9 34 9 47 0 52 -24 15 -57 8 -72 -16z m57 -26 c-3 -42 -8 -47 -30 -34 -36
23 -22 79 18 71 11 -2 14 -13 12 -37z"/>
<path d="M767 1163 c-11 -10 -8 -41 4 -49 16 -9 43 21 36 40 -7 16 -28 21 -40
9z"/>
<path d="M1210 875 c-7 -20 -10 -39 -7 -42 3 -3 10 12 16 33 14 49 7 56 -9 9z"/>
<path d="M1332 775 c0 -16 2 -22 5 -12 2 9 2 23 0 30 -3 6 -5 -1 -5 -18z"/>
<path d="M954 665 c-17 -13 -16 -14 16 -3 43 14 49 18 24 18 -11 0 -29 -7 -40
-15z"/>
<path d="M685 1655 c-28 -28 -34 -85 -11 -105 8 -6 34 -10 58 -8 36 2 45 7 56
32 18 42 15 73 -10 90 -32 23 -65 20 -93 -9z m89 -1 c31 -31 8 -105 -28 -91
-10 4 -15 3 -11 -3 4 -6 -6 -10 -23 -10 -47 0 -58 56 -20 97 25 27 60 30 82 7z"/>
<path d="M705 1630 c-4 -6 -1 -10 4 -10 6 0 11 -8 11 -17 0 -15 2 -16 10 -3 5
8 10 18 10 21 0 12 -29 18 -35 9z"/>
<path d="M1561 1404 c-19 -14 -22 -23 -19 -63 3 -50 13 -58 74 -60 72 -2 98
91 34 124 -37 19 -60 19 -89 -1z m94 -19 c29 -28 31 -42 9 -73 -18 -26 -74
-30 -98 -6 -22 21 -21 80 2 93 29 17 62 12 87 -14z"/>
<path d="M1594 1378 c-4 -7 -3 -8 4 -4 20 12 34 -4 21 -22 -12 -16 -12 -16 5
0 19 17 14 38 -9 38 -8 0 -17 -5 -21 -12z"/>
<path d="M1639 600 c-19 -13 -8 -18 21 -10 19 4 21 7 9 12 -9 3 -22 2 -30 -2z"/>
<path d="M1601 584 c0 -11 3 -14 6 -6 3 7 2 16 -1 19 -3 4 -6 -2 -5 -13z"/>
<path d="M1481 578 c-1 -11 -6 -15 -16 -12 -8 4 -15 2 -15 -4 0 -5 -11 -8 -24
-7 -18 2 -23 -1 -19 -12 4 -11 8 -12 13 -3 4 7 13 10 19 6 6 -4 30 -2 53 5 24
6 48 12 55 13 7 1 16 6 20 10 4 5 -11 6 -34 2 -29 -4 -43 -2 -46 7 -3 7 -6 5
-6 -5z"/>
<path d="M1346 554 c-7 -18 10 -44 28 -43 6 0 6 3 -2 6 -10 4 -9 8 4 17 18 14
12 36 -11 36 -7 0 -16 -7 -19 -16z"/>
</g>
</svg>
