<?xml version="1.0" standalone="no"?>
<!DOCTYPE svg PUBLIC "-//W3C//DTD SVG 20010904//EN"
 "http://www.w3.org/TR/2001/REC-SVG-20010904/DTD/svg10.dtd">
<svg version="1.0" xmlns="http://www.w3.org/2000/svg"
 width="486.000000pt" height="750.000000pt" viewBox="0 0 486.000000 750.000000"
 preserveAspectRatio="xMidYMid meet">

<g transform="translate(0.000000,750.000000) scale(0.100000,-0.100000)"
fill="#000000" stroke="none">
<path d="M2594 7240 c-23 -9 -73 -64 -100 -109 -18 -31 -38 -38 -62 -22 -18
11 6 60 44 90 19 15 22 21 11 21 -16 0 -59 -50 -70 -82 -5 -13 -17 -18 -44
-18 -28 0 -34 3 -23 10 10 6 2 8 -25 3 -47 -7 -91 -31 -123 -67 -20 -24 -26
-26 -77 -20 -38 5 -64 3 -80 -6 -20 -11 -28 -10 -49 4 -14 9 -36 16 -48 15
-22 0 -22 -1 -3 -9 12 -4 26 -14 33 -23 17 -21 -10 -41 -54 -40 -28 1 -34 -3
-34 -20 0 -27 -13 -47 -31 -51 -8 -2 -29 -10 -46 -17 -26 -10 -33 -19 -32 -39
2 -23 2 -23 6 -2 4 19 25 34 22 15 -4 -26 2 -35 15 -24 9 7 17 8 20 2 3 -5 -7
-14 -23 -19 -23 -8 -32 -20 -41 -51 -6 -23 -15 -41 -21 -41 -6 0 -8 -9 -4 -20
4 -12 1 -27 -5 -35 -15 -18 -34 -20 -24 -2 4 6 -3 2 -15 -10 -12 -13 -26 -23
-32 -23 -16 0 -58 -100 -52 -124 3 -11 6 -30 7 -40 1 -11 8 -22 14 -24 15 -5
15 -39 0 -48 -8 -5 -9 0 -6 14 4 12 2 20 -3 16 -5 -3 -9 -16 -9 -30 0 -13 -4
-24 -10 -24 -5 0 -10 -5 -10 -11 0 -7 10 -5 25 5 14 9 25 13 25 8 0 -5 -11
-14 -24 -20 -14 -6 -26 -22 -29 -39 -6 -34 -3 -166 6 -209 3 -16 2 -36 -3 -44
-12 -19 6 -49 36 -60 19 -7 24 -17 24 -42 0 -25 -3 -29 -10 -18 -15 24 -12 -5
5 -36 8 -16 15 -37 15 -47 0 -10 4 -16 9 -13 10 7 31 -46 31 -79 0 -14 17 -38
43 -61 48 -44 87 -96 105 -140 7 -16 26 -38 42 -47 24 -15 31 -29 49 -109 12
-51 28 -102 35 -113 17 -27 26 -65 15 -65 -4 0 -24 7 -43 16 l-34 17 -44 -48
c-24 -26 -77 -90 -118 -143 -73 -92 -78 -97 -176 -146 -56 -28 -128 -72 -160
-97 -72 -55 -118 -82 -170 -99 -21 -7 -59 -23 -84 -35 -25 -13 -67 -26 -95
-30 -27 -4 -73 -18 -101 -31 -28 -13 -58 -24 -66 -24 -8 0 -18 -3 -22 -7 -4
-5 -13 -8 -19 -8 -8 0 -11 -14 -8 -40 8 -77 7 -79 -28 -97 -68 -34 -111 -93
-111 -155 0 -19 -3 -24 -9 -15 -6 10 -16 4 -39 -24 -54 -65 -89 -144 -107
-239 -15 -81 -55 -242 -90 -365 -14 -48 -22 -209 -31 -630 -3 -146 -7 -267 -9
-270 -8 -13 32 -254 43 -258 6 -2 8 -10 5 -19 -4 -10 -2 -14 4 -10 6 4 14 1
16 -5 5 -13 10 12 8 42 0 8 6 2 14 -15 11 -25 14 -26 16 -10 1 11 1 27 0 35
-1 10 3 8 11 -5 7 -12 12 -51 12 -95 -1 -53 1 -65 6 -40 5 28 8 31 14 18 5
-10 1 -69 -9 -130 -45 -310 -54 -375 -54 -398 1 -53 18 17 29 122 7 57 16 113
21 126 5 13 7 28 4 33 -4 5 -1 9 5 9 8 0 10 -13 6 -37 -3 -21 -13 -92 -21
-158 -8 -66 -25 -156 -36 -200 -26 -101 -30 -145 -11 -138 16 7 7 -43 -13 -67
-6 -8 -15 -24 -19 -34 -3 -10 -9 -16 -12 -13 -3 3 -1 14 5 25 14 26 14 52 0
52 -5 0 -7 -5 -4 -11 4 -5 -7 -45 -24 -87 -17 -42 -32 -86 -33 -97 -5 -34 17
-28 23 7 l5 33 8 -38 c11 -49 21 -53 59 -24 18 13 43 29 57 36 21 10 22 9 6
-1 -51 -35 -131 -101 -129 -106 1 -4 -9 -12 -23 -19 -13 -6 -24 -8 -24 -3 0 4
7 11 16 14 9 4 14 9 10 13 -3 3 -15 -2 -26 -12 -14 -13 -17 -21 -9 -25 7 -5 3
-15 -13 -30 -14 -14 -19 -24 -11 -27 7 -2 2 -13 -13 -28 -28 -28 -31 -45 -6
-45 15 0 14 -3 -4 -18 -28 -22 -45 -73 -32 -95 11 -21 38 -22 38 -3 0 8 5 18
10 21 7 4 9 -2 4 -18 -3 -14 -2 -33 4 -42 8 -15 17 -6 58 53 53 77 69 90 53
42 -6 -16 -14 -28 -19 -25 -10 6 -35 -23 -27 -32 4 -3 14 0 23 8 14 11 18 11
29 -4 19 -26 96 -33 129 -12 14 10 26 14 26 10 0 -4 7 -2 15 5 8 7 27 10 43 7
23 -5 30 -1 44 24 13 22 24 29 47 29 16 0 33 -4 36 -10 3 -5 1 -37 -6 -70 -12
-61 -25 -73 -49 -45 -7 8 -18 15 -24 15 -11 -1 12 -22 44 -40 13 -8 11 -12 -7
-25 -20 -14 -22 -24 -21 -75 1 -33 5 -60 9 -60 4 0 9 -16 11 -36 3 -27 2 -33
-7 -21 -9 12 -12 13 -24 0 -11 -12 -11 -19 -1 -39 16 -28 30 -31 30 -6 0 13 2
14 9 3 7 -10 17 -6 47 22 33 30 36 37 25 51 -7 9 -9 16 -3 16 5 0 12 -7 16
-15 6 -17 32 -20 40 -6 9 13 -12 64 -31 79 -9 6 -13 12 -7 12 15 0 29 -14 41
-41 9 -20 18 -25 40 -24 17 1 19 1 6 -2 -23 -4 -34 -43 -12 -43 5 0 8 -4 5 -8
-6 -10 31 -94 46 -103 7 -4 22 2 34 14 12 11 36 22 54 23 80 6 178 28 209 45
30 18 51 20 171 18 137 -2 166 3 154 23 -4 7 -2 8 5 4 6 -4 9 -12 6 -17 -3 -5
1 -6 10 -3 10 4 15 14 12 25 -3 11 -1 17 4 13 5 -3 9 8 9 25 0 16 6 33 13 38
18 11 87 14 87 3 0 -5 8 -7 18 -4 9 4 4 -5 -12 -18 -30 -25 -30 -25 -9 -37 26
-13 44 -15 23 -1 -12 8 -13 11 -2 22 11 11 16 10 26 -5 12 -15 15 -15 26 -2
16 20 27 19 34 -2 10 -33 -4 271 -14 312 -15 62 -12 170 6 207 24 50 73 78
141 79 92 2 105 8 136 72 31 62 31 62 -12 122 -16 22 -26 41 -21 43 5 2 2 21
-6 42 -9 22 -14 45 -11 52 3 8 9 3 15 -12 l11 -25 0 28 c1 17 5 26 11 22 6 -4
10 -12 9 -18 -3 -25 2 -36 27 -67 21 -25 33 -30 53 -26 14 3 20 3 13 0 -6 -3
-10 -10 -6 -15 10 -17 29 -9 46 19 17 27 17 27 18 3 0 -20 2 -21 15 -11 8 7
15 18 15 26 0 7 4 15 9 18 5 4 7 -3 4 -14 -8 -32 24 -25 63 14 34 34 35 40 19
111 -3 11 3 2 13 -20 19 -40 19 -40 31 -16 7 13 11 34 8 47 -4 25 7 32 18 13
16 -25 -18 -100 -61 -138 -24 -21 -44 -43 -44 -49 0 -6 -10 -23 -23 -39 -41
-49 -55 -101 -50 -180 8 -100 -1 -135 -46 -182 -38 -40 -60 -99 -45 -123 4 -7
3 -8 -4 -4 -8 5 -12 -2 -12 -21 0 -16 -4 -33 -9 -38 -5 -6 -18 -48 -30 -94
-11 -46 -23 -87 -26 -90 -3 -3 -4 35 -3 84 2 60 -1 89 -9 92 -7 3 -13 -24 -18
-84 -7 -79 -15 -102 -37 -103 -3 0 -9 24 -11 53 -9 84 -19 127 -29 127 -5 0
-7 4 -4 9 10 15 -5 41 -23 41 -9 0 -31 9 -49 20 l-34 21 1 -73 c0 -40 -2 -109
-5 -152 -4 -60 -2 -81 8 -87 7 -5 57 -9 111 -9 85 0 97 2 98 18 0 14 2 14 7 2
9 -20 40 -20 52 0 8 13 10 12 10 -4 0 -11 3 -17 6 -13 3 3 18 1 33 -5 14 -5
46 -13 71 -17 33 -4 46 -11 48 -25 5 -26 -16 -63 -40 -69 -11 -3 -22 -14 -25
-25 -2 -11 -26 -31 -52 -46 l-48 -26 -6 -64 c-3 -36 -14 -87 -23 -115 -19 -60
-10 -76 46 -76 l34 0 37 -120 c20 -66 43 -138 51 -160 l15 -40 1052 -3 1051
-2 -5 22 c-10 50 -25 146 -30 203 -2 33 -13 152 -22 265 -10 113 -18 232 -18
265 0 33 -3 62 -6 65 -15 14 -31 232 -40 555 -6 198 -14 401 -18 450 -6 66 -8
29 -5 -135 l3 -225 -14 105 c-7 58 -14 138 -14 178 -1 39 -3 72 -6 72 -3 0
-18 -7 -33 -16 l-27 -16 28 26 c28 26 29 29 23 94 -11 118 -27 202 -39 202 -8
0 -7 3 2 9 10 6 11 20 6 51 -7 39 -9 41 -34 36 l-26 -6 26 15 c25 13 26 17 18
62 -9 55 -45 256 -53 293 -38 175 -64 347 -72 465 -4 62 -9 92 -14 80 -6 -15
-9 -9 -15 27 -4 26 -5 53 -2 60 3 7 6 -2 6 -21 1 -19 3 -32 5 -30 8 8 14 69 7
69 -5 0 -13 35 -19 78 -10 68 -9 80 7 108 27 45 35 103 18 123 -8 9 -24 69
-36 133 -12 65 -26 132 -31 150 -7 22 -6 34 2 39 8 5 7 12 -4 23 -9 8 -21 39
-28 68 -6 29 -18 75 -27 101 -14 44 -13 56 1 127 33 163 61 393 48 398 -7 2
-10 13 -6 26 9 38 -25 62 -176 121 -80 31 -155 60 -168 66 -13 5 -30 9 -38 9
-9 0 -30 7 -47 15 -52 24 -166 52 -238 59 -19 1 -48 11 -63 21 -23 15 -32 16
-47 7 -16 -10 -22 -9 -39 8 -23 23 -25 13 -10 -42 6 -21 18 -41 27 -46 11 -6
14 -18 11 -36 -3 -14 -1 -26 3 -26 5 0 9 -4 9 -10 0 -5 -7 -7 -16 -3 -9 3 -14
13 -11 24 3 10 -3 30 -14 43 -10 13 -19 29 -19 35 0 6 -5 11 -12 11 -6 0 -8 3
-5 7 4 3 -2 12 -13 20 -14 10 -20 26 -21 51 0 20 -3 31 -6 24 -9 -22 -23 -2
-17 24 5 18 1 29 -11 38 -13 9 -15 15 -7 20 7 4 12 2 12 -5 0 -7 3 -9 6 -6 4
4 1 14 -7 23 -7 9 -18 26 -24 37 -6 12 -21 27 -33 33 -13 6 -35 22 -50 35 -46
41 -104 66 -86 37 5 -8 2 -9 -9 -5 -12 4 -17 1 -17 -10 0 -11 -3 -13 -9 -7
-12 12 -17 86 -8 101 13 21 47 187 47 232 0 35 3 42 16 37 8 -3 13 -2 10 3 -3
5 17 31 44 59 28 28 50 59 50 69 0 15 2 16 10 3 8 -12 10 -10 10 10 0 14 10
41 22 60 21 32 23 33 26 13 3 -21 9 -26 30 -21 11 2 2 41 -16 61 -11 13 -13
20 -4 29 11 11 28 -17 47 -77 6 -18 7 -18 15 -4 9 16 7 50 -5 69 -3 6 -1 10 5
10 6 0 8 4 5 10 -14 22 15 47 62 54 26 4 64 16 83 26 l35 20 -30 -6 c-16 -3
-36 -7 -42 -10 -16 -4 -43 5 -43 16 0 4 21 11 48 15 42 7 45 8 25 18 -22 10
-32 37 -14 37 11 0 9 65 -2 76 -4 4 1 16 10 26 10 11 13 19 8 18 -6 -2 -22 -2
-37 -1 -34 1 -37 18 -5 23 23 4 24 8 12 46 -4 13 -2 22 4 22 6 0 11 -9 11 -19
0 -11 5 -23 10 -26 6 -3 10 1 10 9 0 17 29 11 42 -8 5 -8 11 -7 20 2 9 9 9 12
0 12 -7 0 -12 10 -12 23 0 13 -7 32 -15 43 -13 17 -14 16 -4 -14 14 -41 6 -51
-21 -27 -26 24 -25 52 3 77 12 11 16 17 9 13 -10 -5 -11 1 -7 22 5 24 4 25 -4
6 -14 -30 -61 -56 -61 -32 0 5 4 8 8 5 4 -2 14 -1 22 4 11 7 12 11 0 24 -7 9
-13 38 -13 64 0 26 -6 57 -14 69 -8 12 -12 27 -8 33 3 5 -1 10 -10 10 -23 0
-39 48 -23 68 9 11 10 14 1 9 -8 -5 -18 4 -28 22 -8 17 -23 35 -33 40 -10 5
-27 29 -38 53 -10 24 -25 48 -33 54 -8 6 -11 16 -6 23 10 17 53 -23 72 -68 8
-18 16 -31 19 -28 8 7 -23 65 -58 110 -22 27 -26 37 -14 37 8 0 22 -10 30 -22
9 -12 16 -17 16 -10 0 20 -40 54 -57 47 -16 -5 -185 71 -191 87 -2 4 -12 8
-22 8 -26 0 -82 25 -73 33 3 4 20 7 37 8 17 0 25 3 19 6 -17 6 -16 23 0 23 8
0 22 9 32 20 10 11 22 17 26 14 21 -13 6 17 -17 35 -34 26 -92 27 -142 2 -22
-11 -61 -19 -97 -20 -33 -1 -71 -3 -85 -4 -16 -1 -25 3 -25 13 0 9 8 14 19 13
13 -1 15 2 8 9 -17 17 34 76 76 87 19 6 40 7 45 4 6 -3 7 -1 3 5 -19 31 -85 4
-122 -49 -33 -49 -46 -49 -42 -2 4 44 40 74 92 76 20 1 36 5 36 9 0 14 -70 9
-103 -8 -30 -15 -31 -15 -15 1 9 10 42 23 75 30 54 12 56 13 18 13 -22 1 -49
-3 -61 -8z m-69 -129 c-3 -6 -11 -11 -17 -11 -6 0 -6 6 2 15 14 17 26 13 15
-4z m-227 -7 c-9 -9 -21 -13 -28 -9 -14 9 5 25 30 25 12 0 12 -3 -2 -16z m32
2 c0 -2 -8 -10 -17 -17 -16 -13 -17 -12 -4 4 13 16 21 21 21 13z m-56 -24 c6
-11 -21 -52 -35 -52 -10 0 -13 43 -2 53 9 10 31 9 37 -1z m620 -12 c35 -13 28
-22 -41 -59 -60 -33 -82 -39 -65 -18 16 19 34 69 22 62 -6 -3 -10 -12 -10 -18
0 -7 -7 -22 -15 -34 -13 -19 -19 -21 -40 -11 -31 14 -31 19 -2 45 45 41 100
53 151 33z m-474 -4 c0 -2 -12 -12 -27 -21 l-28 -18 19 21 c17 20 36 29 36 18z
m289 -39 c-19 -14 -102 -10 -93 4 3 5 29 9 57 9 44 -1 49 -3 36 -13z m-859
-137 c0 -5 -4 -10 -10 -10 -5 0 -10 5 -10 10 0 6 5 10 10 10 6 0 10 -4 10 -10z
m-39 -103 c-13 -12 -20 -15 -16 -7 14 26 28 41 33 35 3 -3 -5 -16 -17 -28z
m-91 -161 c0 -16 -2 -18 -9 -7 -8 12 -12 12 -26 -3 -23 -22 -33 -11 -12 12 23
25 47 24 47 -2z m-46 -47 c-12 -13 -20 -16 -22 -9 -3 7 2 16 9 21 25 16 32 9
13 -12z m1476 11 c0 -5 -4 -10 -10 -10 -5 0 -10 5 -10 10 0 6 5 10 10 10 6 0
10 -4 10 -10z m47 -13 c7 -5 10 -14 7 -19 -6 -10 -44 19 -44 34 0 9 14 4 37
-15z m23 -47 c0 -5 -4 -10 -10 -10 -5 0 -10 5 -10 10 0 6 5 10 10 10 6 0 10
-4 10 -10z m80 -280 c0 -5 -2 -10 -4 -10 -3 0 -8 5 -11 10 -3 6 -1 10 4 10 6
0 11 -4 11 -10z m-446 -530 c10 -28 16 -53 13 -56 -3 -3 -8 5 -12 18 -4 13
-17 31 -29 40 -13 11 -16 18 -7 18 7 0 11 6 7 15 -3 8 -2 15 2 15 5 0 16 -23
26 -50z m103 -24 c-3 -20 -1 -36 5 -38 6 -2 7 -16 1 -36 -13 -53 -28 -33 -24
33 3 60 7 75 18 75 3 0 3 -15 0 -34z m-287 -91 c7 -9 11 -18 8 -20 -9 -10 -38
7 -38 21 0 18 14 18 30 -1z m-487 -626 c14 -6 29 -19 32 -27 4 -12 0 -11 -17
4 -17 14 -20 15 -9 2 7 -10 28 -27 46 -38 36 -22 52 -50 36 -60 -6 -3 -1 -14
12 -25 70 -62 100 -85 110 -85 6 0 2 7 -9 16 -18 14 -18 15 6 8 44 -11 128
-82 152 -129 8 -14 3 -12 -23 9 -19 17 -35 24 -37 17 -4 -13 -52 20 -149 105
-105 91 -173 158 -173 171 0 6 -4 13 -9 15 -5 2 -26 26 -47 53 l-37 50 45 -37
c25 -21 57 -43 71 -49z m814 19 c-3 -8 -6 -5 -6 6 -1 11 2 17 5 13 3 -3 4 -12
1 -19z m173 -174 c0 -8 -4 -12 -10 -9 -5 3 -10 10 -10 16 0 5 5 9 10 9 6 0 10
-7 10 -16z m53 -111 c11 -13 15 -23 8 -23 -16 0 -99 79 -83 80 6 0 12 -4 12
-10 0 -19 18 -10 25 13 7 21 8 20 12 -8 3 -16 14 -40 26 -52z m-419 -3 c-9
-30 -9 -30 -22 -9 -8 11 -9 18 -3 14 7 -4 11 4 11 21 0 21 3 25 12 16 7 -7 8
-21 2 -42z m479 25 c9 -22 -8 -26 -21 -4 -10 15 -10 19 2 19 8 0 16 -7 19 -15z
m-513 -51 c0 -8 -4 -12 -10 -9 -5 3 -10 13 -10 21 0 8 5 12 10 9 6 -3 10 -13
10 -21z m580 -22 c13 -50 7 -49 -18 3 -16 33 -18 43 -7 39 8 -3 19 -22 25 -42z
m-14 -32 c14 -31 19 -50 12 -48 -7 3 -17 19 -22 36 -5 18 -15 32 -22 32 -9 0
-14 11 -14 27 0 36 14 21 46 -47z m294 50 c8 -5 11 -10 5 -10 -5 0 -17 5 -25
10 -8 5 -10 10 -5 10 6 0 17 -5 25 -10z m-1185 -76 c28 -17 63 -39 79 -48 25
-16 28 -22 22 -56 -3 -21 -2 -41 3 -45 6 -3 11 12 13 32 l3 38 14 -53 c15 -61
8 -127 -14 -118 -9 3 -16 -5 -19 -22 -9 -42 -10 -114 -2 -150 6 -29 -9 -17
-128 105 -74 76 -148 156 -165 177 -31 38 -31 39 -11 53 11 8 20 20 20 28 0 7
6 20 13 27 7 7 21 25 31 41 14 21 15 27 5 28 -8 1 -3 4 11 8 29 9 55 -1 125
-45z m599 21 c6 -11 19 -27 28 -36 21 -19 39 -64 33 -81 -3 -7 -14 -54 -24
-103 -19 -90 -69 -214 -96 -242 -8 -8 -15 -21 -15 -28 0 -18 -29 -47 -41 -40
-5 4 -9 -1 -9 -9 0 -8 -5 -18 -12 -22 -7 -5 -8 -3 -3 7 8 12 6 12 -8 1 -14
-12 -17 -10 -22 15 -4 15 -17 64 -30 108 -13 44 -26 94 -30 110 -7 27 -8 28
-16 10 -6 -13 -7 -5 -3 24 4 30 2 46 -7 52 -10 6 -11 23 -3 79 8 57 7 73 -4
79 -11 6 -10 10 4 22 16 13 17 12 11 -6 -7 -19 -7 -19 10 1 29 34 154 84 202
81 13 -1 29 -11 35 -22z m950 9 c3 -9 6 -32 6 -52 0 -33 -2 -35 -15 -21 -9 8
-18 32 -22 52 -4 29 -2 37 10 37 8 0 18 -7 21 -16z m-274 -64 c0 -5 -2 -10 -4
-10 -3 0 -8 5 -11 10 -3 6 -1 10 4 10 6 0 11 -4 11 -10z m-960 -940 c0 -5 -5
-10 -11 -10 -5 0 -7 5 -4 10 3 6 8 10 11 10 2 0 4 -4 4 -10z m858 -189 c-8
-12 -18 -18 -22 -14 -4 4 -4 0 -1 -9 4 -9 0 -18 -8 -21 -10 -4 -14 3 -15 24 0
22 4 29 18 29 10 0 22 5 25 11 4 6 9 8 12 5 3 -2 -1 -14 -9 -25z m-881 -17
c-3 -4 -2 -15 4 -26 7 -13 16 -17 30 -13 23 8 25 -11 4 -39 -19 -25 -19 -56
-1 -56 8 0 17 -8 19 -17 3 -11 5 -6 7 12 1 30 2 30 13 7 13 -29 -4 -43 -48
-40 -27 3 -30 0 -27 -25 3 -31 -30 -92 -58 -107 -12 -6 -16 -17 -13 -30 7 -25
-12 -26 -27 -2 -10 15 -10 15 -6 -3 5 -17 -2 -24 -37 -40 -24 -12 -44 -28 -46
-39 -2 -11 -17 -33 -33 -50 -29 -29 -31 -29 -44 -11 -16 22 -19 12 -4 -16 9
-16 7 -19 -10 -19 -27 0 -26 -18 3 -22 12 -2 20 -7 17 -13 -7 -12 -72 -6 -87
8 -19 20 -50 141 -46 178 3 23 1 30 -5 21 -7 -10 -12 -6 -20 15 -29 76 -62
194 -62 218 0 8 5 15 10 15 6 0 10 -9 10 -19 0 -11 5 -23 10 -26 6 -3 10 0 10
8 0 8 7 20 15 27 12 10 18 10 30 0 13 -11 14 -10 9 4 -7 18 -4 19 20 10 9 -3
16 -14 16 -23 0 -12 2 -13 8 -3 7 9 13 8 27 -7 14 -17 26 -20 66 -16 30 3 49
1 49 -5 0 -16 15 -12 40 10 23 20 60 27 60 12 0 -4 20 -6 45 -4 34 3 45 8 45
21 0 24 -16 46 -24 32 -4 -6 -2 -11 3 -11 6 0 11 -5 11 -12 0 -6 -11 -1 -25
12 -19 18 -22 26 -14 37 6 7 18 13 26 13 12 0 13 3 4 14 -10 11 -8 15 6 19 10
3 20 5 22 6 2 0 1 -2 -2 -5z m1327 -19 c-4 -8 -8 -15 -10 -15 -2 0 -4 7 -4 15
0 8 4 15 10 15 5 0 7 -7 4 -15z m-37 -37 c-3 -7 -5 -2 -5 12 0 14 2 19 5 13 2
-7 2 -19 0 -25z m-514 -25 c-7 -2 -19 -2 -25 0 -7 3 -2 5 12 5 14 0 19 -2 13
-5z m-83 -31 c0 -5 14 -7 30 -4 22 3 30 0 30 -11 0 -8 6 -20 14 -26 12 -10 21
-6 47 18 36 35 40 36 57 19 18 -18 14 -42 -8 -56 -12 -7 -18 -18 -14 -24 4 -7
10 -5 16 6 5 9 14 16 20 16 7 0 6 -5 -2 -15 -6 -8 -10 -18 -7 -22 3 -4 -21 -7
-54 -6 -32 2 -59 -1 -59 -6 0 -5 -13 -11 -30 -14 -18 -4 -30 -13 -30 -22 0 -8
-8 -15 -17 -15 -14 0 -11 7 14 30 18 17 38 30 46 30 8 0 20 6 26 14 14 16 0
30 -41 40 -23 5 -28 3 -28 -11 0 -13 -7 -8 -21 14 -11 18 -18 37 -14 43 7 12
25 13 25 2z m-40 -69 c0 -7 -7 -13 -15 -13 -16 0 -19 9 -9 35 5 13 8 14 15 3
5 -7 9 -19 9 -25z m-210 -38 c5 -14 23 -34 40 -43 32 -18 44 -38 34 -54 -3 -5
-12 -1 -20 11 -8 10 -29 24 -47 30 -29 10 -34 16 -35 46 -2 41 14 46 28 10z
m245 5 c3 -5 -1 -10 -9 -10 -8 0 -18 5 -21 10 -3 6 1 10 9 10 8 0 18 -4 21
-10z m230 -46 c9 -15 12 -23 6 -20 -11 7 -35 46 -28 46 3 0 12 -12 22 -26z
m-34 -37 c-16 -16 -26 0 -10 19 9 11 15 12 17 4 2 -6 -1 -17 -7 -23z m-821
-17 c0 -5 8 -10 17 -10 15 0 14 -2 -3 -14 -17 -13 -20 -13 -26 2 -10 25 -9 32
2 32 6 0 10 -4 10 -10z m620 -5 c0 -9 -6 -12 -17 -8 -11 5 -14 3 -8 -6 4 -8 2
-17 -6 -21 -10 -7 -10 -14 -2 -33 9 -18 8 -24 -2 -24 -7 0 -11 6 -8 14 3 7 0
13 -6 13 -18 0 -12 39 9 60 24 24 40 26 40 5z m230 -25 c0 -5 -4 -10 -10 -10
-5 0 -10 5 -10 10 0 6 5 10 10 10 6 0 10 -4 10 -10z m-762 -56 c35 -12 72 -7
66 10 -3 8 4 16 18 19 28 8 47 -8 30 -25 -7 -7 -12 -21 -12 -33 0 -11 -9 -28
-20 -38 -26 -22 -30 -21 -30 3 0 19 -10 24 -37 21 -7 -1 -13 8 -14 21 0 13 -3
17 -6 11 -6 -17 -23 -16 -23 1 0 7 -10 16 -22 20 -22 5 -22 6 -3 20 18 13 20
13 23 -3 2 -9 15 -21 30 -27z m178 35 c3 -6 1 -16 -5 -22 -18 -18 -13 -35 11
-39 32 -5 35 -28 4 -28 -16 0 -26 -6 -26 -15 0 -8 -5 -15 -11 -15 -8 0 -9 15
-4 46 5 33 3 49 -5 54 -15 9 -4 30 15 30 8 0 17 -5 21 -11z m252 -14 c-3 -27
-20 -36 -26 -13 -2 9 0 8 8 -2 9 -12 10 -10 6 13 -4 16 -2 27 4 27 6 0 10 -11
8 -25z m252 15 c0 -5 -7 -10 -15 -10 -8 0 -15 5 -15 10 0 6 7 10 15 10 8 0 15
-4 15 -10z m-320 -30 c0 -5 -5 -10 -11 -10 -5 0 -7 5 -4 10 3 6 8 10 11 10 2
0 4 -4 4 -10z m-40 -34 c0 -15 -14 -35 -21 -30 -15 9 -10 34 6 34 8 0 15 -2
15 -4z m-290 -51 c7 -9 10 -19 6 -22 -4 -4 -11 -1 -15 6 -5 7 -14 11 -20 7 -7
-5 -9 -1 -5 8 8 20 18 20 34 1z m230 5 c0 -5 -4 -10 -9 -10 -5 0 -12 -8 -14
-17 -3 -11 -5 -7 -6 10 -1 18 4 27 14 27 8 0 15 -4 15 -10z m120 -36 c0 -8 -4
-12 -10 -9 -5 3 -10 10 -10 16 0 5 5 9 10 9 6 0 10 -7 10 -16z m197 -156 c-3
-8 -6 -5 -6 6 -1 11 2 17 5 13 3 -3 4 -12 1 -19z m9 -205 c-10 -10 -19 5 -10
18 6 11 8 11 12 0 2 -7 1 -15 -2 -18z m-1040 -35 c6 -9 -34 -54 -40 -47 -2 2
-7 18 -10 35 -7 30 -5 31 19 27 14 -3 28 -10 31 -15z m61 -10 c-3 -8 -6 -5 -6
6 -1 11 2 17 5 13 3 -3 4 -12 1 -19z m986 -28 c-7 -28 -13 -25 -13 6 0 14 4
23 9 20 5 -3 7 -15 4 -26z m29 -49 c-3 -9 -1 -12 6 -7 6 3 13 -3 17 -14 7 -22
25 -27 26 -7 0 8 2 8 6 -2 4 -10 7 -10 13 -1 5 8 9 6 14 -6 4 -10 4 -15 0 -11
-4 4 -13 2 -20 -4 -9 -8 -18 -5 -33 10 -25 25 -26 23 -6 -15 8 -16 15 -39 15
-52 0 -13 12 -34 28 -47 l27 -23 -25 -22 c-13 -12 -33 -19 -43 -16 -10 2 -21
-2 -24 -10 -3 -8 -9 -11 -14 -8 -5 3 -9 -3 -10 -13 0 -10 -3 -13 -6 -5 -9 23
-20 12 -16 -15 3 -23 2 -25 -6 -12 -16 25 -26 159 -12 159 6 0 11 6 11 14 0 7
7 20 16 27 9 7 20 24 26 38 7 21 5 28 -14 43 -13 10 -17 18 -10 18 6 0 12 8
12 17 0 15 2 15 14 -2 8 -11 11 -26 8 -34z m-1078 -10 c35 -54 42 -121 22
-199 -9 -34 -14 -68 -10 -74 4 -6 1 -9 -7 -6 -8 3 -13 11 -11 18 1 7 -5 18
-15 26 -17 13 -17 13 5 14 24 0 27 7 11 30 -9 13 -10 12 -5 -2 3 -11 0 -18 -8
-18 -10 0 -15 26 -20 98 -6 86 -2 152 10 152 2 0 15 -18 28 -39z m1154 18 c-2
-6 -8 -10 -13 -10 -5 0 -11 4 -13 10 -2 6 4 11 13 11 9 0 15 -5 13 -11z
m-2973 -178 c-4 -34 -10 -61 -14 -61 -4 0 -3 29 3 65 12 81 21 78 11 -4z
m2802 -3 c-3 -7 -5 -2 -5 12 0 14 2 19 5 13 2 -7 2 -19 0 -25z m843 -353 c0
-2 -10 -9 -22 -15 -22 -11 -22 -10 -4 4 21 17 26 19 26 11z m-2108 -127 c-2
-10 -6 -18 -7 -18 -1 0 -5 8 -7 18 -3 11 0 19 7 19 7 0 10 -8 7 -19z m-1581
-206 c-5 -10 -26 -39 -46 -62 -22 -26 -35 -51 -32 -61 3 -10 -1 -20 -9 -23
-18 -7 -18 0 3 51 10 23 26 44 35 47 20 5 25 26 7 26 -8 0 -8 5 1 15 7 8 16
12 21 9 5 -3 12 2 15 11 4 9 9 14 11 11 3 -2 0 -13 -6 -24z m-2 -106 c-2 -2
-15 -9 -29 -15 -24 -11 -24 -11 -6 3 16 13 49 24 35 12z m71 -10 c0 -2 -7 -7
-16 -10 -8 -3 -12 -2 -9 4 6 10 25 14 25 6z m3677 -213 c-2 -21 -4 -4 -4 37 0
41 2 58 4 38 2 -21 2 -55 0 -75z m-3892 -3 c-3 -5 -12 -10 -18 -10 -7 0 -6 4
3 10 19 12 23 12 15 0z m365 -53 c0 -2 -10 -12 -22 -23 l-23 -19 19 23 c18 21
26 27 26 19z m-95 -94 c-41 -40 -46 -36 -7 5 6 7 12 20 12 28 0 8 4 13 9 9 5
-3 13 0 16 6 4 5 9 8 12 5 3 -3 -16 -27 -42 -53z m970 -291 c-3 -3 -11 0 -18
7 -9 10 -8 11 6 5 10 -3 15 -9 12 -12z m-238 -34 c-3 -7 -5 -2 -5 12 0 14 2
19 5 13 2 -7 2 -19 0 -25z m-416 -31 c-10 -9 -11 -8 -5 6 3 10 9 15 12 12 3
-3 0 -11 -7 -18z m166 -29 c-3 -8 -6 -5 -6 6 -1 11 2 17 5 13 3 -3 4 -12 1
-19z"/>
<path d="M2340 4640 c0 -5 5 -10 11 -10 5 0 7 5 4 10 -3 6 -8 10 -11 10 -2 0
-4 -4 -4 -10z"/>
<path d="M3433 6183 c-13 -2 -23 -9 -23 -14 0 -6 9 -7 23 -3 12 4 38 11 57 15
l35 7 -35 -1 c-19 0 -45 -2 -57 -4z"/>
<path d="M4042 3820 c0 -14 2 -19 5 -12 2 6 2 18 0 25 -3 6 -5 1 -5 -13z"/>
<path d="M4221 2514 c0 -11 3 -14 6 -6 3 7 2 16 -1 19 -3 4 -6 -2 -5 -13z"/>
<path d="M4231 2466 c-1 -4 8 -65 19 -135 12 -69 23 -141 26 -160 3 -18 7 -31
10 -29 6 6 -24 211 -40 278 -8 30 -14 51 -15 46z"/>
<path d="M4300 1972 l5 -57 3 49 c2 27 0 52 -5 57 -4 4 -6 -18 -3 -49z"/>
<path d="M444 1376 c-4 -10 -2 -22 4 -28 8 -8 13 -7 18 6 4 10 2 22 -4 28 -8
8 -13 7 -18 -6z"/>
<path d="M434 1016 c-38 -33 -38 -35 -21 -53 18 -17 19 -17 33 1 8 11 14 27
14 37 0 9 7 19 15 23 16 6 21 26 7 26 -5 0 -26 -15 -48 -34z"/>
<path d="M463 965 c-6 -14 -7 -23 -2 -19 13 8 31 44 22 44 -4 0 -13 -11 -20
-25z"/>
<path d="M4405 870 c12 -174 14 -224 6 -195 -5 17 -9 26 -10 20 -1 -9 20 -192
54 -480 8 -71 15 -150 15 -175 0 -29 3 -40 9 -31 7 11 9 11 14 0 11 -28 7 22
-12 143 -11 68 -22 173 -26 233 -8 136 -44 526 -50 540 -3 6 -3 -19 0 -55z
m22 -287 c-3 -10 -5 -2 -5 17 0 19 2 27 5 18 2 -10 2 -26 0 -35z"/>
<path d="M1697 843 c-4 -3 -7 -11 -7 -17 0 -6 5 -5 12 2 6 6 9 14 7 17 -3 3
-9 2 -12 -2z"/>
<path d="M1686 784 c-4 -9 -4 -19 -1 -22 2 -3 7 3 11 12 4 9 4 19 1 22 -2 3
-7 -3 -11 -12z"/>
<path d="M1706 764 c-4 -9 -4 -19 -1 -22 2 -3 7 3 11 12 4 9 4 19 1 22 -2 3
-7 -3 -11 -12z"/>
<path d="M902 742 c-12 -11 -19 -22 -15 -25 3 -4 11 0 18 9 10 15 13 15 27 0
22 -21 34 -21 17 1 -8 9 -13 19 -11 22 9 14 -17 9 -36 -7z"/>
<path d="M850 711 c0 -6 4 -12 8 -15 5 -3 9 1 9 9 0 8 -4 15 -9 15 -4 0 -8 -4
-8 -9z"/>
<path d="M809 680 c-18 -14 -20 -19 -8 -20 22 0 54 25 42 33 -6 4 -22 -2 -34
-13z"/>
<path d="M940 688 c0 -9 5 -20 11 -23 17 -11 20 0 4 21 -13 17 -14 17 -15 2z"/>
<path d="M838 663 c-10 -2 -18 -9 -18 -14 0 -6 8 -5 20 1 11 6 20 13 20 15 0
3 -1 4 -2 4 -2 -1 -11 -3 -20 -6z"/>
</g>
</svg>
