<?xml version="1.0" standalone="no"?>
<!DOCTYPE svg PUBLIC "-//W3C//DTD SVG 20010904//EN"
 "http://www.w3.org/TR/2001/REC-SVG-20010904/DTD/svg10.dtd">
<svg version="1.0" xmlns="http://www.w3.org/2000/svg"
 width="736.000000pt" height="736.000000pt" viewBox="0 0 736.000000 736.000000"
 preserveAspectRatio="xMidYMid meet">

<g transform="translate(0.000000,736.000000) scale(0.100000,-0.100000)"
fill="#000000" stroke="none">
<path d="M3960 6826 c-98 -29 -135 -47 -194 -98 -73 -62 -204 -214 -275 -317
l-62 -91 -32 24 c-65 49 -138 79 -218 87 -69 7 -82 12 -130 49 -75 57 -189
110 -265 123 -79 14 -89 9 -129 -64 -28 -50 -30 -62 -32 -163 l-1 -108 -31
-22 c-21 -14 -40 -44 -60 -91 -44 -104 -59 -174 -77 -345 l-17 -155 -42 -55
c-23 -30 -67 -94 -98 -141 -30 -47 -128 -171 -216 -274 -404 -472 -578 -772
-555 -956 13 -101 91 -192 176 -205 l40 -7 -5 -61 c-6 -87 9 -182 42 -251 34
-74 127 -176 185 -204 60 -30 72 -26 32 10 -19 17 -48 56 -63 87 -25 51 -28
67 -27 157 0 55 6 120 13 144 l12 44 26 -39 c40 -60 99 -124 160 -177 53 -45
57 -52 59 -97 1 -27 11 -69 22 -93 l20 -45 -26 -24 c-15 -13 -45 -37 -67 -53
-101 -74 -195 -172 -234 -246 -55 -102 -53 -180 5 -251 45 -54 64 -62 36 -16
-27 43 -30 138 -7 214 16 53 64 98 155 144 51 26 150 61 150 54 0 -3 -18 -32
-41 -65 -53 -78 -95 -170 -111 -237 -31 -141 74 -330 222 -398 30 -14 63 -30
73 -35 9 -5 30 -6 45 -2 27 7 27 7 -8 13 -28 4 -39 13 -60 50 -21 38 -25 57
-24 125 1 84 20 144 63 193 l20 23 23 -21 c60 -56 153 -81 228 -59 l45 12 -38
7 c-68 12 -129 100 -113 164 5 20 129 167 148 174 4 2 34 -12 65 -31 72 -44
203 -98 311 -128 45 -13 82 -26 82 -30 0 -3 -26 -16 -57 -29 -92 -37 -213
-113 -213 -135 0 -3 21 9 48 28 46 33 105 67 117 67 4 0 -7 -17 -24 -37 -17
-20 -28 -39 -26 -42 3 -2 6 -2 8 0 51 69 75 92 122 114 65 30 110 27 99 -9 -7
-25 -47 -100 -130 -246 -51 -92 -59 -112 -59 -158 0 -51 -1 -53 -25 -46 -14 4
-32 7 -40 7 -8 0 -24 6 -35 13 -11 8 -28 14 -38 14 -13 0 -17 5 -14 18 3 9 11
42 18 72 7 30 19 71 27 90 7 19 10 31 5 25 -17 -17 -52 -111 -59 -154 -5 -34
-10 -41 -23 -35 -28 13 -88 16 -95 6 -4 -6 8 -8 33 -5 31 4 43 1 60 -16 23
-23 29 -70 9 -72 -32 -3 -85 4 -103 13 -20 9 -20 9 -1 -6 11 -9 32 -16 48 -16
33 0 35 -9 9 -42 -11 -13 -22 -44 -26 -70 -7 -48 0 -68 53 -132 13 -16 19 -33
14 -38 -4 -4 -49 -5 -100 0 -59 5 -96 4 -102 -2 -24 -24 -50 45 -57 152 -6 83
21 142 86 184 29 19 37 27 21 23 -42 -12 -99 -75 -115 -127 -8 -27 -25 -58
-40 -71 -18 -16 -36 -56 -65 -150 -22 -71 -40 -138 -40 -149 0 -10 -5 -28 -10
-39 -20 -36 6 -19 101 66 97 88 141 112 186 100 24 -6 21 -9 -48 -58 -93 -66
-219 -137 -240 -137 -10 0 -39 -17 -66 -38 -77 -60 -297 -209 -339 -229 -51
-24 -60 -59 -45 -182 6 -52 10 -94 9 -95 -2 -1 -29 -19 -61 -39 l-57 -37 -42
21 c-56 28 -145 36 -184 16 -55 -29 -131 -110 -143 -152 -7 -22 -14 -96 -17
-165 -3 -69 -8 -132 -11 -140 -4 -8 -5 -21 -4 -29 1 -7 -8 -54 -20 -103 l-23
-91 40 -37 c31 -29 58 -42 124 -60 140 -37 147 -37 216 8 44 29 74 41 109 44
l48 3 34 -75 c45 -100 66 -139 79 -151 8 -7 36 7 87 43 41 29 89 61 106 70 17
9 35 28 40 42 16 39 45 54 101 48 53 -5 59 1 35 32 -8 11 -15 23 -15 27 0 4
26 23 58 42 54 33 61 35 124 30 44 -4 78 -1 98 7 30 12 35 11 93 -30 l62 -42
95 6 c52 4 115 11 140 16 33 6 54 4 79 -6 19 -8 42 -12 52 -9 10 3 46 -1 80
-10 86 -22 259 -45 348 -45 88 0 141 17 330 106 133 64 134 64 220 63 96 -1
171 -16 91 -18 -45 -1 -80 -14 -64 -24 5 -2 38 -8 74 -12 36 -4 74 -9 85 -11
11 -2 38 -5 60 -5 22 -1 51 -8 64 -17 16 -10 26 -11 29 -4 4 13 125 -50 247
-130 49 -32 96 -58 105 -58 8 0 44 18 79 41 53 34 68 39 95 33 17 -4 47 -8 66
-9 19 0 52 -5 73 -9 46 -10 51 7 6 23 -21 7 -30 16 -27 28 5 29 48 43 131 43
66 0 77 2 77 18 1 9 7 34 14 55 11 30 11 36 1 27 -10 -9 -22 15 -53 112 -23
68 -48 151 -58 185 -9 34 -21 61 -27 60 -7 -1 -13 9 -15 21 -4 27 -42 46 -124
63 -44 9 -61 20 -100 62 -27 28 -48 56 -48 63 0 13 -161 84 -191 84 -10 0 -19
7 -19 15 0 32 -51 115 -89 145 -56 45 -75 95 -68 170 5 48 -1 98 -27 233 -40
198 -71 302 -126 422 l-39 84 61 33 c74 39 161 116 178 158 7 16 16 30 20 30
14 0 39 -36 66 -94 31 -67 30 -137 -2 -161 -17 -13 -17 -14 -2 -15 19 0 82 73
97 113 14 37 14 116 -1 158 -6 19 -44 93 -83 164 -106 191 -98 174 -78 174 85
-1 207 47 260 103 15 15 31 28 35 28 5 0 41 21 81 47 95 61 226 181 295 268
l55 70 -8 -95 c-4 -52 -9 -211 -11 -354 l-3 -258 -41 -63 c-49 -75 -140 -164
-198 -194 -82 -42 -178 -40 -232 5 -16 14 -30 21 -30 15 0 -19 94 -81 150 -98
82 -25 227 -22 310 6 36 13 73 30 83 38 9 9 19 14 21 12 7 -6 -21 -131 -45
-201 -23 -71 -76 -162 -111 -194 -60 -55 -145 -72 -205 -40 -37 19 -66 66 -56
92 4 12 3 15 -5 10 -21 -13 -13 -55 16 -86 16 -18 52 -39 87 -51 51 -18 74
-20 150 -15 107 7 161 20 169 42 6 14 3 14 -21 -1 -20 -14 -53 -19 -128 -22
l-100 -4 40 19 c80 38 139 126 190 286 12 38 25 63 28 55 3 -8 3 1 0 20 -4 22
-2 32 4 28 6 -4 9 5 7 23 -2 17 1 30 7 30 6 0 9 9 6 20 -3 11 -2 20 3 20 4 0
5 12 3 28 -3 20 -2 23 6 12 5 -8 7 -18 5 -22 -3 -4 15 -8 40 -8 35 0 46 4 46
16 0 8 7 22 15 31 8 8 13 19 10 24 -4 5 6 9 20 9 15 0 24 -4 20 -10 -3 -6 -1
-10 4 -10 6 0 11 7 11 16 0 9 6 14 13 11 6 -2 11 -10 10 -16 -4 -17 40 -12 66
8 13 10 32 16 42 14 25 -7 14 -23 -16 -23 -13 0 -27 -4 -30 -10 -8 -12 11 -13
53 -1 35 10 41 2 16 -23 -14 -15 -14 -17 1 -32 9 -9 14 -23 10 -32 -3 -8 0
-21 6 -28 16 -20 -29 -108 -102 -199 -60 -74 -96 -104 -214 -177 -33 -21 -56
-38 -52 -38 12 0 88 40 132 70 25 17 60 29 92 33 146 17 292 161 338 332 11
41 16 103 16 198 0 75 3 137 6 137 4 0 57 -25 118 -55 108 -53 230 -146 233
-177 0 -7 4 -32 8 -55 10 -62 -2 -105 -42 -151 -25 -29 -44 -42 -62 -43 -26 0
-26 -1 -6 -11 47 -22 123 84 125 173 l1 54 14 -45 c16 -48 11 -114 -9 -141
-20 -26 -65 -51 -79 -43 -10 5 -10 4 -2 -5 17 -18 69 11 95 52 26 41 22 122
-10 192 -56 122 -71 145 -151 225 -71 71 -94 104 -142 195 -31 61 -67 138 -81
172 l-25 62 25 143 c13 79 44 213 68 298 49 174 76 282 104 419 11 51 22 95
24 97 3 3 34 -31 70 -74 47 -58 80 -87 118 -106 64 -31 86 -33 94 -5 23 70
-71 189 -197 250 l-70 34 6 45 c28 216 34 593 11 760 -14 109 -42 210 -57 210
-4 0 -8 6 -8 14 0 7 -33 45 -74 83 -53 51 -83 72 -110 77 -20 4 -36 12 -36 19
0 6 29 39 65 73 92 86 98 112 96 409 -2 207 -4 234 -22 271 -25 54 -78 79
-140 69 -120 -19 -250 -98 -399 -241 -123 -119 -213 -237 -285 -377 l-57 -108
-39 35 c-21 20 -48 45 -59 56 -71 71 -489 308 -623 354 -53 18 -162 22 -172 6
-8 -12 -79 -3 -121 16 -33 15 -199 44 -251 44 -17 0 -34 4 -37 8 -2 4 7 50 20
102 54 206 78 416 52 438 -9 7 -36 3 -88 -12z m9 -100 c14 -16 4 -91 -13 -104
-6 -5 -34 -12 -63 -16 -28 -4 -68 -13 -87 -21 -42 -18 -52 -8 -33 37 26 60 87
100 178 117 4 0 12 -5 18 -13z m-1179 -141 c31 -8 73 -22 91 -30 l34 -15 -45
5 c-33 4 -40 3 -25 -4 15 -7 8 -9 -31 -9 -27 0 -60 -2 -71 -6 -43 -14 -60
-138 -23 -171 11 -10 17 -23 13 -29 -3 -6 -3 -8 2 -4 12 11 45 -11 45 -30 -1
-16 -1 -16 -10 0 -6 9 -18 14 -27 12 -14 -4 -18 -15 -17 -49 2 -49 -15 -81
-39 -72 -25 9 -49 100 -48 186 1 105 46 231 84 231 5 0 35 -7 67 -15z m1190
-29 c0 -3 -4 -16 -10 -30 -11 -31 -35 -34 -50 -7 -8 16 -6 22 7 30 18 10 53
15 53 7z m-1042 -28 c8 -10 5 -13 -13 -13 -18 0 -21 3 -13 13 6 6 12 12 13 12
1 0 7 -6 13 -12z m-38 -32 c43 -20 37 -44 -31 -112 -35 -35 -69 -64 -75 -64
-7 0 -26 11 -42 25 -33 27 -44 72 -33 126 5 27 12 35 36 40 39 7 114 0 145
-15z m933 -31 c-7 -71 2 -71 17 0 7 34 15 53 22 49 11 -7 4 -187 -8 -205 -3
-5 -25 -9 -50 -9 l-45 0 27 35 c37 49 25 54 -14 6 -31 -39 -34 -40 -140 -56
l-43 -7 27 39 c14 21 37 59 50 85 13 25 37 56 53 67 28 20 88 50 103 51 4 0 4
-25 1 -55z m-178 -17 c-11 -37 -89 -146 -107 -151 -14 -4 -18 1 -18 26 0 45
19 76 68 114 51 39 66 42 57 11z m-615 -33 c21 -22 22 -25 5 -25 -19 0 -55 27
-55 42 0 16 27 7 50 -17z m2974 19 c44 -17 -18 -103 -76 -105 -52 -1 -112 2
-121 8 -12 7 22 42 72 75 43 27 90 35 125 22z m-2918 -132 c57 -56 121 -139
113 -146 -2 -2 -32 -19 -66 -39 -45 -26 -63 -32 -63 -22 0 8 -29 37 -64 65
-61 48 -82 78 -88 129 -2 20 5 29 41 48 24 12 49 23 56 23 7 0 38 -26 71 -58z
m3044 34 c0 -7 -5 -28 -12 -46 -10 -30 -12 -31 -24 -16 -7 10 -10 25 -7 34 13
37 43 57 43 28z m-2215 -16 c-3 -5 -11 -10 -16 -10 -6 0 -7 5 -4 10 3 6 11 10
16 10 6 0 7 -4 4 -10z m-1005 -45 c0 -29 33 -81 70 -110 20 -16 47 -43 58 -59
l21 -30 -51 -34 c-39 -27 -53 -32 -57 -21 -2 8 -17 26 -32 40 -16 15 -33 39
-39 53 -14 37 -13 119 2 151 12 27 28 33 28 10z m1106 0 c207 -23 204 -32 -11
-38 -104 -3 -221 -12 -260 -19 -70 -13 -70 -13 -66 -43 1 -16 9 -41 16 -55 21
-40 73 -90 94 -90 11 0 27 -3 36 -6 14 -6 13 -9 -7 -23 -13 -9 -26 -15 -29
-14 -4 1 -6 -4 -5 -11 1 -15 -91 -126 -105 -126 -5 0 -11 12 -15 28 -31 143
-110 230 -214 236 -8 1 -21 5 -27 9 -8 5 -13 4 -13 -2 0 -6 -6 -8 -14 -5 -18
7 -156 -61 -269 -133 -49 -31 -105 -62 -125 -69 l-37 -13 50 -1 50 -1 -50 -18
c-27 -10 -101 -31 -164 -46 -62 -16 -127 -38 -144 -49 -62 -42 -92 -144 -107
-361 -4 -64 -3 -118 2 -128 9 -17 13 -16 64 12 29 17 56 31 58 31 3 0 6 -28 8
-62 3 -57 5 -63 23 -60 11 2 41 7 67 11 l48 7 -24 -30 c-13 -17 -43 -46 -67
-64 -24 -19 -73 -61 -109 -93 -35 -32 -68 -59 -72 -59 -10 0 -9 54 1 135 5 33
6 63 4 68 -3 4 -27 -11 -55 -33 -28 -22 -54 -40 -59 -40 -4 0 -13 17 -20 38
-20 64 -89 193 -105 199 -18 7 -46 -8 -152 -79 -41 -27 -76 -48 -78 -46 -2 3
22 36 54 74 32 38 78 98 102 134 48 72 128 180 145 195 6 6 31 34 55 64 24 29
70 75 101 101 50 42 66 49 121 56 35 5 68 9 75 9 7 0 34 16 60 36 101 76 261
179 277 179 9 0 16 4 16 9 0 15 225 122 242 116 8 -3 54 6 103 20 48 14 104
26 124 28 20 1 39 6 42 10 3 4 50 12 105 16 54 5 106 9 114 10 8 0 74 -6 146
-14z m-1211 -35 c20 -23 12 -40 -19 -40 -28 0 -46 18 -46 46 0 17 5 20 24 17
14 -3 32 -13 41 -23z m2915 20 c0 -24 -30 -79 -48 -89 -26 -14 -72 -14 -72 -1
0 19 82 100 101 100 11 0 19 -5 19 -10z m274 -26 c8 -20 8 -132 0 -160 -4 -15
-22 -27 -60 -40 -31 -10 -51 -20 -45 -22 6 -2 27 2 47 8 19 7 38 10 41 6 3 -3
-1 -35 -8 -71 l-13 -65 -89 -27 c-50 -15 -85 -29 -79 -31 7 -2 -4 -27 -26 -60
-46 -67 -132 -220 -132 -233 0 -5 17 -9 38 -9 46 -1 142 -10 161 -16 11 -4 9
-10 -8 -27 -28 -31 -27 -46 2 -20 l22 21 31 -53 31 -53 -63 -18 c-36 -10 -78
-14 -99 -11 -19 3 -35 2 -35 -3 0 -18 54 -17 170 4 34 6 36 5 69 -51 19 -32
34 -66 34 -76 -3 -27 -29 -54 -97 -99 -83 -54 -111 -51 -190 19 -43 40 -92 63
-133 63 l-28 1 35 27 c19 15 50 42 70 61 l35 33 -35 -23 c-19 -12 -53 -37 -75
-54 -22 -18 -53 -36 -70 -40 -27 -8 -24 -9 30 -15 85 -10 104 -17 159 -67 26
-24 59 -46 73 -49 l25 -7 -29 -18 c-22 -15 -47 -19 -114 -19 -170 0 -226 37
-277 182 -28 81 -30 90 -17 115 8 16 15 36 15 45 0 11 33 32 103 66 56 27 113
53 126 57 12 4 20 9 17 12 -7 7 -157 -52 -216 -85 -35 -19 -51 -35 -55 -55
l-7 -27 -24 36 -25 36 146 154 c80 84 145 156 145 160 0 4 -46 -39 -102 -94
-115 -113 -166 -154 -181 -145 -6 3 -8 2 -4 -3 8 -14 -39 -68 -52 -59 -8 5 -4
21 15 53 14 26 47 85 72 132 109 203 183 309 340 481 48 53 166 129 200 129
21 0 21 -1 -9 -55 -36 -66 -32 -74 5 -11 14 25 38 54 52 65 32 25 79 28 88 5z
m-3361 -14 c3 -11 3 -20 1 -20 -2 0 -8 9 -14 20 -6 11 -7 20 -2 20 6 0 12 -9
15 -20z m1905 -10 c7 0 11 -4 8 -9 -4 -5 4 -7 16 -3 17 4 20 2 14 -13 -5 -14
-4 -15 7 -7 10 9 24 6 55 -9 23 -12 42 -25 42 -29 0 -19 -35 -19 -65 0 -18 11
-42 20 -54 20 -12 0 -19 4 -16 10 3 6 -1 7 -10 4 -11 -4 -14 -2 -10 9 5 11 0
14 -22 11 -17 -2 -21 -1 -8 3 l20 6 -20 9 c-17 7 -16 8 5 3 14 -2 31 -5 38 -5z
m110 -107 c31 -21 57 -43 59 -50 5 -13 -89 -37 -127 -32 -18 3 -31 17 -47 49
-13 24 -23 53 -23 63 0 32 72 16 138 -30z m63 20 c13 -16 12 -17 -3 -4 -28 21
-22 -4 7 -34 35 -34 20 -32 -20 3 -31 28 -31 37 1 51 1 1 8 -7 15 -16z m1409
-43 c0 -30 -7 -48 -31 -75 -17 -19 -35 -35 -40 -35 -22 0 -5 100 23 129 31 34
48 27 48 -19z m-550 -4 c0 -50 -102 -129 -116 -92 -9 24 25 75 64 95 48 26 52
26 52 -3z m-2707 -18 c23 -9 27 -16 27 -49 0 -46 -6 -51 -47 -34 -31 13 -63
59 -63 91 0 17 25 15 83 -8z m1938 -45 c13 -16 12 -17 -3 -4 -10 7 -18 15 -18
17 0 8 8 3 21 -13z m-5 -19 c25 -17 54 -62 54 -86 0 -7 -20 8 -45 32 -58 57
-63 89 -9 54z m-32 -32 c3 -5 -8 -6 -25 -4 -16 2 -29 6 -29 8 0 8 49 4 54 -4z
m64 -65 c23 -23 62 -68 85 -101 23 -32 55 -74 71 -93 54 -64 -10 -25 -109 66
-49 45 -53 47 -20 12 l40 -44 -99 7 c-77 5 -102 11 -112 24 -25 32 -54 101
-56 134 -4 39 21 49 102 41 47 -4 61 -11 98 -46z m-1080 -31 c-7 -8 -15 -12
-17 -11 -5 6 10 25 20 25 5 0 4 -6 -3 -14z m479 -8 c20 -22 63 -100 63 -114 0
-4 -9 4 -19 18 -11 13 -42 36 -71 52 l-51 28 -85 -26 c-124 -39 -257 -111
-437 -236 -15 -11 -19 -11 -13 -2 13 21 161 128 234 169 37 21 105 55 152 77
132 60 194 69 227 34z m1873 8 c0 -22 -49 -76 -69 -76 -42 0 -30 39 22 70 38
24 47 25 47 6z m-1483 -49 c32 -60 26 -77 -15 -42 -25 21 -32 35 -32 62 0 46
17 39 47 -20z m1333 26 c-1 -91 -35 -142 -130 -192 -62 -33 -140 -64 -140 -55
0 18 59 129 95 180 39 54 50 63 97 77 74 21 78 21 78 -10z m-1142 -112 c136
-14 200 -57 258 -175 19 -38 45 -84 59 -102 14 -18 25 -35 25 -37 0 -2 -26 4
-57 15 -32 11 -80 21 -108 22 -27 2 -76 9 -107 15 l-58 12 -35 76 c-20 41 -34
78 -31 81 3 3 -1 10 -9 16 -17 13 -49 86 -38 86 5 0 50 -5 101 -9z m-110 -106
c8 -18 8 -26 0 -31 -13 -8 -38 23 -38 48 0 24 24 13 38 -17z m-94 9 c3 -8 2
-12 -4 -9 -6 3 -10 10 -10 16 0 14 7 11 14 -7z m112 -72 c-3 -3 0 -12 7 -20 9
-13 9 -14 0 -8 -7 4 -18 16 -23 26 -9 16 -8 18 5 14 9 -4 13 -9 11 -12z m36
-34 c-9 -9 -9 -15 1 -27 10 -14 10 -14 -5 -3 -14 11 -15 17 -5 32 6 11 13 17
16 14 3 -2 -1 -10 -7 -16z m1301 3 c15 -8 27 -19 27 -24 0 -5 -6 -5 -13 2 -8
6 -16 9 -18 7 -2 -2 -13 6 -24 17 -21 21 -18 20 28 -2z m-46 -52 c16 -16 4
-49 -18 -49 -27 0 -70 22 -66 34 3 9 36 22 63 25 5 1 15 -4 21 -10z m-986 -48
c116 -19 134 -28 154 -71 10 -22 24 -45 32 -51 22 -19 15 -41 -27 -77 -44 -37
-47 -55 -5 -28 33 22 32 15 -11 -112 -51 -148 -81 -168 -173 -116 -78 45 -83
52 -63 83 l16 26 -22 -19 c-24 -21 -24 -21 -41 11 -9 18 -17 173 -8 173 1 0
26 -9 55 -20 29 -11 60 -20 70 -19 13 0 14 2 2 6 -8 3 -39 14 -67 25 l-53 19
0 70 c0 56 4 73 20 89 22 22 40 24 121 11z m-218 -48 c-5 -12 -3 -14 7 -8 8 5
4 -7 -8 -27 -21 -33 -21 -38 -7 -77 11 -33 12 -41 1 -41 -28 0 -35 107 -10
145 19 29 26 32 17 8z m42 -51 c7 -33 -11 -90 -25 -76 -14 15 -20 65 -9 85 14
27 26 23 34 -9z m1220 -6 c16 -12 17 -16 6 -30 -16 -20 -31 -20 -56 -2 -16 12
-17 16 -6 30 16 20 31 20 56 2z m-1605 -143 c13 -43 38 -125 57 -182 19 -57
33 -105 31 -106 -2 -2 -24 14 -48 36 -59 51 -116 74 -153 60 -37 -14 -81 -88
-108 -177 -12 -41 -26 -74 -32 -74 -7 0 -121 78 -155 106 -9 7 -50 166 -57
218 l-7 60 44 -36 c90 -74 174 -96 237 -64 29 15 93 106 132 189 13 26 26 47
30 47 3 0 16 -35 29 -77z m299 -10 c-1 -30 -4 -37 -6 -20 -3 16 -11 27 -20 27
-14 0 -14 3 2 20 10 11 20 20 22 20 1 0 2 -21 2 -47z m45 -14 c-20 -115 -21
-117 -23 -24 -1 80 0 87 13 69 8 -11 13 -31 10 -45z m44 5 c0 -31 -1 -33 -13
-17 -8 11 -10 24 -4 34 4 9 5 20 1 24 -4 5 -2 5 5 2 6 -4 11 -23 11 -43z
m1232 17 c0 -47 -28 -71 -93 -80 -31 -4 -57 -4 -57 1 0 9 130 108 143 108 4 0
7 -13 7 -29z m-2990 -76 c36 -9 91 -28 124 -41 33 -13 61 -22 64 -20 2 3 -9
22 -24 43 l-29 38 29 -19 c97 -62 86 -60 186 -37 49 12 98 24 107 27 10 4 3
-4 -14 -17 -18 -13 -33 -27 -33 -31 0 -5 49 -8 109 -8 124 0 231 -9 231 -20 0
-4 -10 -11 -22 -15 -18 -6 -11 -9 32 -15 30 -4 77 -18 105 -31 l49 -24 41
-160 c22 -88 44 -168 48 -177 8 -23 7 -23 -86 7 -77 25 -164 31 -217 16 -19
-6 -9 -9 42 -14 78 -7 175 -31 238 -58 43 -18 47 -24 75 -96 37 -97 104 -208
191 -318 38 -48 75 -97 81 -108 7 -12 13 -18 13 -13 0 6 16 -5 35 -24 43 -42
36 -57 -13 -26 -76 48 -143 76 -252 107 -85 23 -118 37 -137 57 -22 24 -23 25
-18 6 5 -21 1 -22 -82 -26 -50 -3 -103 -12 -123 -21 l-35 -16 45 5 45 6 -32
-22 c-29 -19 -97 -100 -90 -106 2 -2 33 8 70 21 86 31 96 31 58 0 -16 -14 -43
-52 -58 -83 -24 -50 -28 -71 -31 -167 -2 -63 1 -121 7 -135 8 -19 9 -6 4 53
-4 54 -2 77 6 77 6 0 11 -7 11 -15 0 -9 9 -15 23 -15 12 0 33 -10 47 -23 34
-31 116 -47 153 -29 34 17 72 4 108 -34 12 -13 26 -24 30 -24 4 0 16 21 26 48
25 65 25 204 0 250 -10 19 -17 36 -14 38 6 7 118 -74 165 -119 23 -23 42 -50
42 -62 0 -11 -35 -94 -78 -185 l-77 -165 -64 -32 c-72 -36 -161 -50 -205 -33
-25 9 -27 9 -16 -4 25 -31 116 -66 183 -73 37 -3 66 -9 65 -12 -2 -3 -12 -22
-22 -42 -10 -20 -35 -46 -55 -57 -96 -53 -391 -102 -612 -102 -152 0 -425 63
-628 145 -124 50 -161 70 -257 142 -82 60 -123 115 -131 171 -7 54 18 102 55
103 25 2 25 2 4 6 -21 4 -23 9 -18 36 8 46 9 149 2 167 -8 21 -66 278 -72 320
-5 42 0 32 47 -83 17 -43 34 -76 36 -73 3 3 0 19 -6 37 -19 54 -14 83 22 117
42 40 95 62 153 62 44 0 46 -1 31 -17 -35 -40 -50 -119 -44 -231 6 -115 14
-152 29 -152 6 0 8 6 5 14 -3 8 0 17 8 20 9 3 12 0 9 -9 -4 -10 0 -12 15 -8
12 3 32 -4 50 -16 28 -20 91 -29 91 -13 0 15 52 31 71 22 10 -6 20 -10 23 -10
3 0 6 33 6 73 0 75 -20 164 -46 205 -20 30 -6 28 28 -5 23 -22 28 -24 28 -9 0
17 -27 73 -58 116 -17 25 -17 25 23 -3 30 -21 24 -13 -23 31 -34 33 -86 70
-116 83 -29 13 -64 38 -76 54 l-22 30 6 -26 6 -27 -68 4 c-37 3 -86 6 -109 8
-24 2 -43 0 -43 -5 0 -5 -17 -17 -37 -28 -46 -24 -40 -26 17 -6 24 8 45 14 47
12 2 -2 -15 -16 -37 -31 -23 -15 -50 -41 -60 -59 -12 -18 -20 -26 -21 -17 -1
8 -3 26 -6 40 -8 46 -3 312 7 372 17 109 206 410 280 448 54 28 150 50 216 50
l59 0 -25 21 c-21 17 -22 19 -5 15 11 -3 49 -12 85 -21z m1750 -1 c13 -33 13
-124 0 -124 -25 0 -42 49 -35 100 8 55 20 64 35 24z m-83 -16 c-3 -7 -5 -2 -5
12 0 14 2 19 5 13 2 -7 2 -19 0 -25z m0 -40 c-3 -8 -6 -5 -6 6 -1 11 2 17 5
13 3 -3 4 -12 1 -19z m1232 0 c-5 -9 -18 -20 -30 -23 -24 -8 -69 1 -69 14 0
12 48 28 81 27 22 -1 25 -4 18 -18z m-410 -128 c83 -41 181 -149 232 -259 22
-47 44 -93 49 -102 7 -13 4 -18 -11 -22 -13 -3 -39 9 -77 38 -79 59 -260 239
-301 299 -31 45 -71 133 -71 156 0 5 27 -11 61 -36 33 -26 86 -59 118 -74z
m179 58 c-4 -32 -31 -33 -64 -4 l-29 25 48 1 c44 0 48 -2 45 -22z m-937 -30
c-10 -11 -11 -9 -5 6 5 13 4 17 -4 12 -8 -4 -12 0 -12 11 0 16 1 16 17 0 14
-14 15 -19 4 -29z m386 -130 c-3 -90 -12 -200 -21 -245 -13 -71 -20 -88 -50
-118 -20 -19 -39 -47 -42 -60 -7 -28 -35 -33 -54 -10 -11 13 -7 38 20 143 39
150 62 262 57 277 -2 5 -12 -27 -22 -72 -15 -70 -23 -87 -56 -119 l-39 -38 0
37 c0 62 43 139 123 219 9 10 17 22 17 26 0 12 61 122 67 122 3 0 3 -73 0
-162z m-203 91 c-7 -12 -31 -11 -39 1 -4 6 -4 18 -1 27 6 14 8 14 26 -2 11
-10 17 -22 14 -26z m-164 11 c0 -5 -2 -10 -4 -10 -3 0 -8 5 -11 10 -3 6 -1 10
4 10 6 0 11 -4 11 -10z m1021 -90 c115 -94 161 -162 157 -230 -2 -22 -8 -40
-13 -40 -24 0 -116 68 -156 115 -23 28 -68 77 -99 110 -89 95 -88 90 -11 90
65 0 69 -2 122 -45z m67 -247 c48 -29 48 -29 -12 -35 -37 -4 -39 -3 -57 41
-11 25 -23 54 -29 63 -18 32 -10 29 21 -7 18 -20 52 -48 77 -62z m-4073 60
c-5 -10 -9 -86 -11 -169 -2 -130 -5 -158 -24 -203 -12 -28 -27 -51 -33 -51 -6
0 -35 8 -64 17 -76 24 -113 67 -113 132 0 43 6 57 46 111 47 62 175 180 195
180 7 0 8 -7 4 -17z m3208 -48 c-3 -9 -8 -14 -10 -11 -3 3 -2 9 2 15 9 16 15
13 8 -4z m-71 -122 c-6 -32 -19 -28 -27 7 -4 20 -2 37 6 47 12 14 14 13 19 -8
4 -13 4 -34 2 -46z m796 51 c28 -19 31 -50 3 -33 -21 14 -45 49 -33 49 4 0 18
-7 30 -16z m186 -20 c23 -9 20 -34 -3 -34 -22 0 -35 15 -26 30 7 12 8 12 29 4z
m-994 -89 c6 -4 18 1 26 11 14 18 14 18 5 -3 -14 -27 -14 -36 -1 -28 6 3 10
-1 10 -9 0 -9 6 -16 13 -17 6 -1 1 -4 -13 -8 -21 -6 -25 -13 -23 -39 2 -21 -1
-30 -10 -28 -6 1 -9 1 -5 -1 4 -3 10 -4 13 -3 3 0 14 -9 25 -22 l18 -23 24 20
23 20 -18 -21 c-9 -11 -14 -24 -10 -29 5 -4 -2 -3 -13 3 -12 6 -24 8 -28 5 -3
-3 -6 -1 -6 4 0 6 -11 10 -25 8 -31 -3 -40 -11 -26 -20 6 -3 11 -1 11 4 0 6 5
11 10 11 16 0 11 -18 -10 -38 -16 -15 -20 -28 -17 -56 3 -21 1 -34 -3 -29 -4
4 -13 54 -20 110 -10 88 -9 131 5 186 2 4 3 19 5 35 l2 27 14 -32 c7 -17 18
-35 24 -38z m190 -10 c0 -24 -24 -44 -37 -31 -9 8 14 56 27 56 5 0 10 -11 10
-25z m-89 -62 c13 -16 12 -17 -3 -4 -17 13 -22 21 -14 21 2 0 10 -8 17 -17z
m-24 -4 c8 -8 8 -20 1 -40 -13 -37 -22 -37 -38 2 -11 26 -11 32 1 40 18 11 23
11 36 -2z m-47 -119 c0 -5 -5 -10 -11 -10 -5 0 -7 5 -4 10 3 6 8 10 11 10 2 0
4 -4 4 -10z m-2090 -156 c0 -16 -26 -19 -35 -4 -3 6 -4 14 0 20 8 13 35 1 35
-16z m2025 16 c3 -5 1 -10 -4 -10 -6 0 -11 5 -11 10 0 6 2 10 4 10 3 0 8 -4
11 -10z m-612 -66 c100 -50 160 -94 129 -94 -6 0 -94 52 -179 107 -33 21 -4
14 50 -13z m-276 -89 c3 -9 3 -18 0 -21 -10 -10 -47 7 -47 22 0 19 39 18 47
-1z m1657 -61 c-10 -20 -39 -58 -65 -84 -40 -40 -54 -48 -81 -47 -25 2 -33 6
-32 20 1 9 -3 17 -9 17 -6 0 -5 7 4 15 10 10 22 13 35 8 17 -6 17 -8 -6 -14
-24 -7 -24 -7 -2 -8 12 -1 22 -5 22 -11 0 -5 5 -10 11 -10 8 0 8 5 -1 15 -7 8
-9 15 -5 15 4 0 2 7 -5 15 -10 12 -9 16 7 22 34 14 101 67 120 96 16 24 18 25
21 7 2 -10 -5 -36 -14 -56z m-2947 -31 c-3 -10 -5 -4 -5 12 0 17 2 24 5 18 2
-7 2 -21 0 -30z m-383 -5 c29 -21 31 -25 20 -46 -13 -25 -20 -20 -48 36 -20
38 -16 39 28 10z m645 -18 c0 -10 -3 -8 -9 5 -12 27 -12 43 0 25 5 -8 9 -22 9
-30z m-32 14 c-3 -3 -12 -4 -19 -1 -8 3 -5 6 6 6 11 1 17 -2 13 -5z m-27 -18
c0 -3 -4 -8 -10 -11 -5 -3 -10 -1 -10 4 0 6 5 11 10 11 6 0 10 -2 10 -4z
m1848 -60 c43 -22 76 -33 154 -50 42 -9 71 -98 66 -196 -11 -192 -150 -326
-328 -318 l-64 3 -13 50 c-18 69 -16 117 7 235 25 128 98 300 127 300 2 0 25
-11 51 -24z m-981 -8 c-3 -8 -6 -5 -6 6 -1 11 2 17 5 13 3 -3 4 -12 1 -19z
m230 -74 c-3 -3 -12 -4 -19 -1 -8 3 -5 6 6 6 11 1 17 -2 13 -5z m-34 -21 c-7
-2 -19 -2 -25 0 -7 3 -2 5 12 5 14 0 19 -2 13 -5z m-1748 -35 l25 -11 -26 -28
c-32 -34 -44 -29 -44 17 0 37 6 40 45 22z m3666 -145 c0 -5 2 -15 3 -23 2 -8
6 -56 10 -105 l7 -91 -35 -32 c-43 -39 -49 -39 -70 -7 -9 14 -20 25 -24 25 -5
0 -32 -34 -61 -75 -28 -41 -58 -75 -66 -75 -7 0 -26 18 -42 41 -65 93 -52 91
-127 16 -37 -37 -65 -71 -62 -75 3 -5 -1 -9 -9 -9 -15 0 -14 5 40 122 20 44
46 105 57 135 24 65 38 84 38 52 0 -13 7 -37 16 -53 25 -49 58 -34 224 100 70
57 99 72 101 54z m-1691 -118 c-7 -9 -15 -13 -17 -11 -7 7 7 26 19 26 6 0 6
-6 -2 -15z m-40 -15 c-8 -5 -19 -10 -25 -10 -5 0 -3 5 5 10 8 5 20 10 25 10 6
0 3 -5 -5 -10z m-35 -68 c-3 -3 -11 0 -18 7 -9 10 -8 11 6 5 10 -3 15 -9 12
-12z m-2039 -119 c-4 -9 -1 -21 6 -26 9 -6 8 -7 -4 -3 -13 4 -18 0 -18 -15 0
-11 5 -17 10 -14 6 3 10 2 10 -3 0 -4 17 -16 37 -26 28 -13 33 -20 23 -26 -8
-5 -11 -12 -8 -16 4 -4 19 1 33 10 30 20 31 18 39 -79 9 -126 33 -271 50 -303
22 -43 21 -45 -21 -23 -140 71 -232 219 -221 356 5 54 51 185 65 185 3 0 2 -8
-1 -17z m-261 -54 c-4 -17 -7 -56 -7 -88 0 -39 -2 -50 -8 -36 -13 30 -12 100
2 130 15 34 21 32 13 -6z m2354 -49 c35 -75 44 -103 66 -195 l14 -60 -98 101
c-53 56 -109 121 -124 143 l-28 42 33 13 c97 39 99 38 137 -44z m-2044 50 c-3
-5 -11 -10 -16 -10 -6 0 -7 5 -4 10 3 6 11 10 16 10 6 0 7 -4 4 -10z m3832
-47 c-3 -10 -5 -2 -5 17 0 19 2 27 5 18 2 -10 2 -26 0 -35z m-1959 -17 c20
-28 35 -62 39 -92 6 -46 7 -47 23 -27 16 20 17 19 67 -26 70 -63 123 -129 123
-152 0 -25 -63 -94 -100 -109 -33 -14 -83 -6 -78 13 6 18 110 78 125 72 25 -9
10 11 -50 65 l-61 55 44 -54 c29 -35 40 -56 32 -59 -7 -2 -36 -21 -64 -42 -28
-22 -56 -36 -61 -33 -6 4 -7 1 -2 -6 4 -8 -7 -28 -31 -54 l-39 -41 44 37 44
37 36 -23 c29 -18 51 -22 116 -22 44 0 92 3 108 8 25 7 28 5 34 -25 5 -26 8
-29 13 -13 5 15 15 -1 39 -63 45 -117 77 -233 114 -419 l33 -161 -34 -144
c-41 -172 -72 -277 -84 -284 -5 -3 -44 -15 -86 -26 -55 -14 -126 -21 -249 -25
-95 -3 -173 -10 -173 -14 0 -5 10 -9 23 -10 13 -1 6 -5 -17 -10 -22 -5 -43 -6
-47 -2 -12 14 -38 173 -45 276 l-6 98 73 -35 c41 -18 110 -51 153 -71 70 -33
82 -36 100 -24 51 31 165 94 204 111 24 11 41 22 39 25 -5 5 -128 -55 -207
-101 -25 -14 -52 -26 -60 -26 -8 0 -81 30 -162 67 -124 57 -148 71 -148 90 0
12 -16 52 -36 90 -45 84 -163 347 -158 352 6 6 108 -62 139 -94 17 -17 57 -55
90 -85 33 -30 -24 31 -128 135 -103 105 -183 191 -177 193 20 7 220 -61 220
-75 0 -7 5 -13 10 -13 6 0 10 4 10 9 0 12 85 -12 170 -49 36 -15 76 -31 90
-34 25 -6 25 -6 3 5 -22 12 -31 29 -15 29 4 1 21 12 37 26 35 30 15 22 -32
-12 l-31 -24 -64 30 c-35 17 -78 33 -95 36 -18 3 -33 8 -33 11 0 2 17 30 38
61 48 72 54 82 48 82 -3 0 -26 -29 -51 -65 -63 -87 -78 -86 -54 4 34 125 95
259 176 385 24 37 42 73 40 79 -11 35 -195 -323 -227 -443 -6 -23 -15 -53 -20
-66 l-9 -23 -68 23 c-59 20 -69 27 -74 52 -12 55 -9 160 6 212 22 73 91 216
141 292 72 109 97 133 151 146 26 6 48 12 49 13 0 0 15 -19 32 -43z m-778 -8
c0 -13 5 -30 11 -38 8 -12 9 -7 6 18 -3 26 0 32 15 32 14 0 18 -8 18 -35 0
-19 4 -35 9 -35 5 0 8 13 7 29 l-2 28 191 -1 c104 0 211 3 238 7 69 12 57 -5
-20 -28 -54 -16 -98 -20 -211 -20 l-143 0 7 -67 c4 -38 3 -68 -2 -68 -24 0
-92 24 -116 41 -24 17 -27 27 -30 89 -2 51 0 70 10 70 6 0 12 -10 12 -22z
m2180 14 c0 -5 -12 -22 -26 -38 l-25 -29 17 38 c16 34 34 49 34 29z m-904 -22
c5 -5 24 -10 43 -12 46 -3 71 -38 71 -98 0 -26 -7 -64 -15 -84 -21 -50 -92
-126 -111 -119 -12 4 -12 8 -2 21 12 13 11 14 -9 2 -20 -13 -20 -15 -5 -28 16
-13 16 -13 0 -8 -11 3 -17 0 -15 -6 1 -7 -21 -24 -48 -39 -38 -21 -54 -25 -65
-18 -12 9 -12 10 3 5 11 -3 16 -2 12 5 -4 5 -16 7 -27 3 -14 -4 -18 -2 -14 5
5 7 1 8 -9 4 -14 -5 -14 -8 -3 -15 9 -6 6 -7 -9 -3 -12 3 -24 1 -28 -5 -4 -6
-13 -9 -20 -6 -8 3 -15 1 -17 -4 -2 -5 -9 -6 -17 -1 -18 11 -4 34 16 27 11 -5
13 -2 9 11 -4 10 -4 14 0 10 10 -9 66 120 88 203 10 36 23 70 28 77 5 7 6 18
2 24 -4 7 -3 9 3 6 6 -4 28 7 48 23 38 30 73 38 91 20z m1461 -57 c0 -44 -2
-53 -4 -25 -4 42 -10 49 -29 35 -5 -5 -1 -1 8 9 10 9 18 23 18 32 0 9 2 16 4
16 2 0 4 -30 3 -67z m-3459 -18 c-3 -3 -9 2 -12 12 -6 14 -5 15 5 6 7 -7 10
-15 7 -18z m3729 -1 c-3 -3 -12 -4 -19 -1 -8 3 -5 6 6 6 11 1 17 -2 13 -5z
m-1530 -38 c17 1 26 -10 44 -50 30 -70 35 -132 14 -181 l-17 -40 -15 50 c-8
28 -33 76 -55 108 -32 47 -38 64 -33 88 4 16 11 27 16 23 5 -3 9 1 9 8 0 8 3
9 8 3 4 -6 17 -10 29 -9z m1080 -22 c-3 -3 -12 -4 -19 -1 -8 3 -5 6 6 6 11 1
17 -2 13 -5z m182 -82 c-4 -49 -14 -104 -22 -123 l-15 -34 -1 40 c-1 22 -8 65
-16 95 -18 66 -17 63 -5 55 5 -3 12 6 16 20 3 13 10 22 15 19 5 -3 9 0 9 5 0
6 6 11 13 11 10 0 11 -19 6 -88z m-661 59 c-7 -11 -16 -17 -22 -14 -5 3 -1 12
9 20 25 18 27 17 13 -6z m-23 -31 c3 -5 1 -10 -4 -10 -6 0 -11 5 -11 10 0 6 2
10 4 10 3 0 8 -4 11 -10z m352 4 c-3 -3 -12 -4 -19 -1 -8 3 -5 6 6 6 11 1 17
-2 13 -5z m-2299 -27 c18 -14 15 -48 -5 -63 -28 -21 -80 -17 -93 5 -16 30 -12
40 21 60 31 19 51 18 77 -2z m2560 -25 c6 -20 14 -70 18 -109 6 -64 4 -74 -15
-102 -33 -46 -150 -97 -166 -72 -2 5 11 34 29 65 19 32 47 92 62 134 15 42 31
87 35 100 12 32 24 27 37 -16z m-638 -16 c-7 -9 -17 -16 -22 -16 -6 0 -5 7 2
15 19 23 8 26 -19 4 -14 -11 -18 -19 -10 -19 11 0 11 -2 -1 -10 -12 -7 -10
-11 10 -19 l25 -10 -32 -12 c-25 -10 -32 -18 -27 -31 4 -13 -2 -21 -20 -28
-27 -10 -134 -5 -181 9 l-30 9 32 1 c42 1 140 38 164 62 11 11 23 18 28 17 5
-2 9 1 9 5 0 5 13 22 28 38 25 26 30 27 43 15 12 -12 12 -18 1 -30z m31 27
c13 -16 12 -17 -3 -4 -10 7 -18 15 -18 17 0 8 8 3 21 -13z m-2088 -40 c3 -24
1 -43 -4 -43 -5 0 -9 21 -9 47 0 56 5 54 13 -4z m2081 3 c-3 -8 -1 -17 5 -21
6 -3 11 -1 11 6 0 7 3 10 6 6 3 -3 0 -14 -7 -25 -14 -18 -15 -18 -44 0 -19 11
-24 18 -14 18 9 0 22 7 29 15 16 19 21 19 14 1z m-44 -80 c0 -2 -9 -6 -20 -9
-11 -3 -18 -1 -14 4 5 9 34 13 34 5z m-1677 -32 l58 -6 -7 -32 c-8 -39 -9 -40
-31 -28 -10 5 -51 13 -91 17 -68 7 -72 8 -66 29 9 28 24 37 54 31 14 -2 51 -7
83 -11z m781 -23 c8 -12 -41 -24 -57 -14 -8 5 -3 10 13 14 36 10 38 10 44 0z
m-109 -16 l50 -14 -55 1 c-30 0 -64 3 -75 6 -18 5 -18 6 5 13 14 4 25 7 25 8
0 0 23 -6 50 -14z m-1376 -9 c10 -12 8 -17 -8 -25 -11 -6 -21 -11 -24 -11 -3
0 -1 37 2 48 3 7 20 0 30 -12z m159 -63 c31 -21 62 -49 69 -63 18 -35 16 -117
-3 -173 -16 -47 -16 -47 -62 -48 -26 -1 -51 0 -57 1 -5 1 -26 2 -45 2 -36 0
-60 12 -60 31 0 5 8 3 18 -6 42 -38 27 -13 -21 36 -29 29 -54 52 -56 50 -2 -1
7 -18 19 -38 18 -30 20 -39 9 -45 -18 -11 -20 -9 -64 54 -36 52 -37 56 -25 93
27 82 63 119 140 144 40 13 78 2 138 -38z m575 29 c8 -7 12 -23 9 -43 -4 -26
-8 -30 -26 -25 -11 4 -54 11 -93 17 -72 11 -73 12 -73 41 l0 31 84 -5 c47 -2
91 -10 99 -16z m-269 -42 c40 -30 93 -125 75 -135 -5 -4 -9 -1 -9 4 0 6 -7 11
-15 11 -8 0 -17 11 -21 25 -3 14 -10 25 -15 25 -12 0 -12 -17 0 -24 5 -3 7
-15 4 -27 -4 -16 -11 -8 -29 36 -30 76 -51 98 -86 91 -30 -6 -39 10 -10 17 41
11 69 5 106 -23z m-172 -4 c19 -8 39 -21 45 -28 24 -29 42 -199 27 -254 l-6
-22 -61 22 c-34 11 -63 21 -64 21 -1 1 5 23 13 50 11 36 13 69 9 117 -6 58
-11 71 -34 88 l-26 19 31 1 c17 0 47 -6 66 -14z m2650 -55 c-48 -44 -110 -75
-165 -84 l-37 -6 52 59 c49 55 56 59 88 54 19 -2 49 0 65 5 17 5 32 9 35 10 3
0 -14 -17 -38 -38z m-2355 -28 c10 -42 -13 -50 -36 -12 -12 19 -21 40 -21 46
0 22 50 -8 57 -34z m120 -104 c18 -35 30 -70 28 -77 -3 -7 -1 -11 4 -7 9 5 32
-49 30 -69 0 -5 4 -12 9 -15 10 -6 62 -117 62 -130 0 -3 -7 2 -14 12 -8 10
-22 17 -33 15 -15 -3 -18 3 -15 34 1 20 -2 39 -8 43 -7 4 -9 -2 -4 -20 6 -25
5 -26 -15 -16 -17 10 -21 9 -21 -5 0 -10 5 -14 15 -10 9 3 15 0 15 -8 0 -8 3
-23 6 -33 5 -15 4 -15 -5 -3 -9 13 -11 13 -11 -2 0 -9 5 -20 11 -24 8 -4 7 -9
-2 -15 -12 -7 -12 -9 0 -9 7 0 11 -6 8 -14 -3 -7 0 -19 6 -25 15 -15 37 5 36
33 0 21 0 21 -9 -1 -12 -31 -18 -29 -17 5 2 27 3 28 29 18 16 -6 31 -19 34
-30 5 -15 8 -16 15 -5 5 8 9 10 9 4 0 -5 -4 -16 -8 -23 -6 -9 -12 -5 -21 15
-13 26 -14 27 -22 8 -11 -29 -11 -37 3 -29 7 4 8 3 4 -4 -4 -6 -14 -8 -23 -5
-12 5 -14 3 -8 -8 5 -8 -4 -3 -18 10 -14 13 -26 26 -25 30 2 19 -4 24 -12 11
-6 -9 -10 -10 -10 -3 0 6 5 15 10 18 6 3 10 12 10 18 -1 7 -10 1 -22 -13 -15
-17 -22 -21 -26 -12 -3 10 -8 7 -19 -7 -8 -12 -11 -27 -7 -34 5 -9 4 -9 -6 0
-10 9 -10 15 -1 26 6 8 9 23 5 33 -5 16 -4 16 5 4 9 -13 12 -12 17 8 4 12 12
22 19 22 7 0 19 7 26 16 12 15 11 16 -7 10 -21 -6 -21 -5 -11 39 7 30 13 41
19 33 10 -17 10 -10 -1 29 -6 20 -6 35 0 38 5 4 9 12 9 18 0 8 -3 7 -9 -2 -9
-14 -39 -4 -40 14 -1 6 -6 10 -11 10 -6 0 -26 13 -45 28 -26 20 -34 34 -30 47
6 19 -9 34 -35 36 -8 1 -25 2 -36 3 -12 0 -25 8 -28 17 -5 14 -4 15 8 5 10 -9
16 -9 21 -1 5 8 11 7 22 -2 12 -10 17 -9 28 5 7 10 10 27 7 39 -5 19 -3 19 34
-4 27 -18 48 -44 71 -89z m-1071 12 c-9 -10 -16 -23 -16 -29 0 -7 -5 -12 -11
-12 -15 0 -2 68 19 100 l17 25 3 -33 c2 -21 -3 -41 -12 -51z m861 12 c0 -40
-1 -43 -7 -21 -7 23 -4 68 5 68 1 0 2 -21 2 -47z m88 -44 c22 -22 61 -57 88
-77 27 -20 47 -44 47 -55 0 -19 -29 -128 -37 -136 -2 -3 -29 22 -61 55 -58 60
-82 112 -98 212 -9 55 9 56 61 1z m19 25 c4 -10 1 -14 -6 -12 -15 5 -23 28
-10 28 5 0 13 -7 16 -16z m-97 -56 c-3 -8 -6 -5 -6 6 -1 11 2 17 5 13 3 -3 4
-12 1 -19z m22 -68 c1 -13 0 -13 -9 0 -5 8 -9 24 -9 35 l0 20 9 -20 c5 -11 9
-27 9 -35z m-431 20 c9 0 -22 -23 -68 -52 -122 -75 -215 -144 -250 -186 -16
-20 -30 -33 -30 -28 0 28 221 262 254 270 12 2 34 2 50 0 16 -2 36 -4 44 -4z
m453 -108 c-8 -14 -11 -14 -12 -2 0 8 -3 29 -5 45 l-4 30 15 -28 c11 -20 13
-32 6 -45z m69 -48 c33 -34 40 -45 25 -42 -11 2 -21 9 -21 16 -3 23 -4 24 -19
12 -8 -7 -16 -10 -16 -6 -1 3 -3 11 -4 16 -1 6 -3 18 -4 28 -1 15 -3 15 -16
-2 -16 -21 -19 -18 -9 8 9 23 14 20 64 -30z m-53 -26 c-3 -8 -6 -5 -6 6 -1 11
2 17 5 13 3 -3 4 -12 1 -19z m248 -18 c3 -5 1 -10 -4 -10 -6 0 -11 5 -11 10 0
6 2 10 4 10 3 0 8 -4 11 -10z m-238 -57 c-3 -10 -5 -4 -5 12 0 17 2 24 5 18 2
-7 2 -21 0 -30z m152 -17 c29 -16 101 -97 101 -115 0 -35 -86 15 -115 67 -36
65 -34 72 14 48z m156 -16 c3 -5 1 -10 -4 -10 -6 0 -11 5 -11 10 0 6 2 10 4
10 3 0 8 -4 11 -10z m-175 -49 c7 -14 4 -23 -13 -37 -22 -19 -22 -19 -5 2 16
19 16 22 1 44 -9 13 -11 20 -5 16 7 -4 16 -15 22 -25z m124 2 c11 -13 16 -23
13 -23 -10 0 -37 31 -37 42 0 6 1 9 3 7 1 -2 11 -14 21 -26z m-93 -130 c13
-16 12 -17 -3 -4 -17 13 -22 21 -14 21 2 0 10 -8 17 -17z m17 -43 c54 -48 74
-88 117 -228 l14 -44 -36 7 c-39 7 -128 45 -156 66 -16 13 -17 26 -11 132 4
64 10 117 13 117 3 -1 30 -23 59 -50z m995 -33 c47 -36 91 -109 84 -143 -2
-13 -1 -27 3 -29 5 -3 11 -73 15 -156 4 -83 11 -146 15 -140 10 16 34 -14 60
-74 l21 -50 -6 40 c-4 22 -13 49 -21 60 -48 67 -49 68 -36 73 6 2 12 8 12 13
0 6 -4 8 -9 5 -13 -8 -21 30 -20 94 1 41 3 49 8 30 29 -94 73 -138 206 -207
81 -41 88 -54 58 -100 -15 -22 -18 -51 -18 -174 0 -81 -3 -150 -7 -154 -9 -9
-238 125 -403 235 -160 106 -160 106 -152 93 12 -19 208 -148 407 -268 107
-64 186 -114 175 -111 -13 4 -45 -9 -93 -38 l-74 -45 -81 54 c-96 62 -241 136
-273 140 -39 4 -250 152 -342 240 -95 90 -111 118 -136 236 -18 83 -10 91 93
87 l74 -3 32 -60 c17 -33 37 -71 44 -83 24 -46 22 -13 -3 45 -14 32 -26 69
-28 83 -3 24 0 25 74 37 43 6 82 14 88 18 6 4 29 -5 51 -20 44 -29 57 -28 40
3 -7 14 -5 40 8 96 10 42 21 79 24 82 3 3 24 -6 47 -21 23 -15 44 -25 46 -22
3 3 -27 26 -85 64 -4 3 19 134 26 146 3 5 13 -4 22 -20 10 -15 34 -41 54 -56z
m-2405 -142 c24 -12 32 -24 37 -55 6 -37 4 -43 -61 -120 -55 -65 -72 -80 -89
-76 -14 4 -27 -2 -39 -15 -9 -12 -16 -23 -13 -25 2 -3 10 2 17 11 16 19 30 19
30 1 0 -8 5 -16 12 -18 7 -3 6 -7 -5 -11 -9 -3 -17 -2 -17 4 0 6 -6 7 -12 2
-7 -4 -37 -8 -65 -8 -49 0 -54 2 -62 28 -11 30 -4 34 25 12 28 -21 55 -19 28
3 -11 9 -34 35 -49 57 -16 22 -35 45 -42 51 -11 10 -2 23 49 67 128 112 119
106 174 107 28 0 65 -7 82 -15z m336 -29 c72 -19 85 -27 133 -79 62 -68 102
-192 106 -336 l2 -72 -118 -55 c-65 -31 -156 -78 -202 -105 -108 -63 -115 -66
-116 -43 0 11 -3 14 -5 8 -3 -6 2 -30 10 -53 14 -41 13 -42 -6 -39 -17 2 -27
26 -59 138 -44 153 -44 154 -24 146 27 -10 0 27 -84 115 -68 71 -77 84 -65 96
8 8 12 19 9 24 -11 16 187 238 240 268 23 13 98 8 179 -13z m2268 -27 c43 -17
78 -36 78 -41 0 -5 -5 -6 -12 -2 -7 5 -9 2 -6 -8 6 -15 -2 -15 -109 -6 -7 1
-15 8 -19 17 -13 34 -22 71 -17 71 4 0 42 -14 85 -31z m-3122 -29 c9 -6 11
-10 3 -10 -7 0 -10 -7 -7 -15 7 -18 0 -19 -42 -3 -26 9 -39 9 -60 -1 -24 -11
-26 -10 -14 3 22 28 94 43 120 26z m218 -100 c2 -4 12 -18 23 -31 10 -12 19
-23 19 -25 0 -2 -28 10 -62 26 -58 28 -88 52 -88 72 0 10 104 -30 108 -42z
m2929 34 c4 -13 -32 -25 -52 -18 -7 3 -16 12 -19 20 -5 12 2 15 31 12 20 -2
38 -8 40 -14z m-3043 -66 c-16 -4 -35 -15 -41 -25 -17 -23 -27 -10 -13 17 15
27 51 41 69 27 10 -9 7 -13 -15 -19z m-221 0 c10 -5 14 -14 11 -20 -5 -7 -2
-9 8 -5 18 7 38 -11 37 -33 0 -8 -5 -4 -10 10 -8 18 -12 21 -18 11 -6 -9 -11
-10 -15 -2 -4 6 -12 11 -18 11 -7 0 -6 -5 2 -15 19 -23 1 -39 -21 -19 -10 9
-16 21 -13 25 3 5 -1 9 -8 9 -21 1 -51 28 -43 40 7 12 55 5 88 -12z m346 -46
c16 -42 25 -88 14 -77 -16 17 -83 112 -83 118 0 18 60 -18 69 -41z m3031 28
c0 -5 -2 -10 -4 -10 -3 0 -8 5 -11 10 -3 6 -1 10 4 10 6 0 11 -4 11 -10z
m-3110 -8 c0 -4 -7 -15 -15 -26 -16 -21 -40 -16 -47 11 -4 15 2 18 29 20 18 1
33 -1 33 -5z m-80 -109 c12 -34 20 -68 18 -75 -3 -7 -15 19 -28 57 -13 39 -25
77 -28 85 -3 10 -2 12 5 5 6 -5 21 -38 33 -72z m-169 44 c-10 -9 -11 -8 -5 6
3 10 9 15 12 12 3 -3 0 -11 -7 -18z m3467 -51 c52 -47 43 -57 -17 -19 -39 24
-61 45 -61 57 0 18 1 18 28 1 15 -10 38 -27 50 -39z m-3088 25 c0 -27 -14 -71
-20 -62 -9 15 0 71 11 71 5 0 9 -4 9 -9z m156 -78 c77 -72 98 -98 115 -142 19
-51 71 -244 66 -246 -31 -14 -60 -25 -66 -25 -4 0 -20 21 -34 48 -25 44 -106
157 -203 284 l-42 53 11 58 c16 83 35 79 153 -30z m42 1 c48 -47 76 -80 62
-73 -30 15 -170 139 -170 151 0 21 28 1 108 -78z m2921 -85 c22 -28 22 -32 8
-46 -29 -30 -60 8 -49 60 5 24 13 21 41 -14z m203 -173 c59 -60 53 -72 -39
-78 -86 -6 -119 4 -146 46 -16 24 -16 24 51 71 l67 46 15 -23 c8 -13 31 -40
52 -62z m-3868 -75 c3 -5 -1 -14 -8 -20 -10 -9 -16 -9 -21 -1 -4 6 -1 9 7 8 7
-2 12 3 11 10 -3 14 3 16 11 3z"/>
<path d="M2938 5893 c6 -2 18 -2 25 0 6 3 1 5 -13 5 -14 0 -19 -2 -12 -5z"/>
<path d="M5695 5899 c-30 -61 -62 -111 -80 -125 l-30 -24 65 26 c77 31 85 36
41 28 l-33 -7 32 64 c18 35 41 74 52 86 14 15 17 26 11 37 -7 12 -21 -8 -58
-85z"/>
<path d="M4929 5534 c41 -38 79 -71 85 -73 20 -7 -66 77 -113 110 -37 25 -31
18 28 -37z"/>
<path d="M5090 5184 c0 -9 7 -14 17 -12 25 5 28 28 4 28 -12 0 -21 -6 -21 -16z"/>
<path d="M2855 4749 c-83 -11 -193 -62 -260 -121 -67 -59 -54 -63 26 -8 109
75 178 95 331 95 69 0 124 3 122 7 -7 11 -104 38 -128 37 -12 -1 -52 -6 -91
-10z"/>
<path d="M2955 4303 c16 -15 109 -86 125 -96 8 -5 -5 10 -30 33 -25 23 -58 49
-75 57 -16 8 -25 11 -20 6z"/>
<path d="M3968 4183 c7 -3 16 -2 19 1 4 3 -2 6 -13 5 -11 0 -14 -3 -6 -6z"/>
<path d="M3850 4170 c-16 -6 -6 -7 30 -3 30 3 57 7 59 9 8 7 -64 2 -89 -6z"/>
<path d="M2775 3738 c17 -57 49 -110 72 -119 26 -9 123 -2 123 10 0 3 -29 4
-65 3 l-65 -4 -30 66 c-30 65 -48 88 -35 44z"/>
<path d="M4149 3518 c-48 -49 -84 -50 -216 -4 -54 19 -90 29 -80 22 27 -21
176 -67 219 -69 33 -1 44 5 80 41 23 23 40 43 38 44 -3 2 -21 -14 -41 -34z"/>
<path d="M3218 3413 c-13 -3 -18 -15 -18 -41 l0 -37 20 32 c19 32 33 39 95 46
17 2 5 4 -25 4 -30 1 -63 -1 -72 -4z"/>
<path d="M3358 3403 c7 -3 16 -2 19 1 4 3 -2 6 -13 5 -11 0 -14 -3 -6 -6z"/>
<path d="M3422 3378 c22 -13 43 -36 54 -60 9 -21 19 -36 21 -34 3 2 -3 20 -12
40 -15 32 -69 76 -91 76 -5 0 7 -10 28 -22z"/>
<path d="M3501 3234 c0 -11 3 -14 6 -6 3 7 2 16 -1 19 -3 4 -6 -2 -5 -13z"/>
<path d="M5779 4794 c19 -9 57 -17 85 -20 48 -4 47 -3 -24 15 -88 24 -108 25
-61 5z"/>
<path d="M4989 4363 c-13 -15 -12 -15 9 -4 23 12 28 21 13 21 -5 0 -15 -7 -22
-17z"/>
<path d="M5627 3812 c-19 -21 -22 -42 -7 -42 5 0 7 7 4 15 -4 8 -1 15 5 15 6
0 11 -5 11 -11 0 -8 5 -8 15 1 8 7 15 18 14 24 0 7 -2 6 -6 -1 -2 -7 -9 -13
-15 -13 -6 0 -8 7 -4 15 7 20 3 19 -17 -3z"/>
<path d="M5558 3753 c7 -3 16 -2 19 1 4 3 -2 6 -13 5 -11 0 -14 -3 -6 -6z"/>
<path d="M4773 3471 c47 -56 26 -122 -43 -137 -56 -13 -76 -24 -30 -18 63 9
96 28 109 65 13 38 -6 91 -40 110 -22 11 -22 10 4 -20z"/>
<path d="M4323 2483 c-31 -84 -37 -107 -25 -99 12 7 55 132 50 146 -2 6 -13
-16 -25 -47z"/>
<path d="M4467 2375 c4 -16 7 -54 7 -83 0 -47 2 -51 14 -35 15 20 9 68 -13
118 l-14 30 6 -30z"/>
<path d="M3788 2293 c6 -2 18 -2 25 0 6 3 1 5 -13 5 -14 0 -19 -2 -12 -5z"/>
<path d="M4176 2180 c86 -116 231 -294 254 -310 42 -30 37 -18 -13 32 -23 24
-53 58 -66 77 l-24 33 24 -7 c29 -9 119 -53 136 -67 8 -6 9 -19 2 -40 -5 -18
-6 -34 -4 -37 8 -7 13 2 20 40 6 34 5 37 -38 64 -43 28 -44 29 -41 74 l4 46
-13 -40 c-9 -26 -18 -39 -28 -36 -68 20 -85 31 -135 93 -50 60 -108 119 -78
78z"/>
<path d="M4210 1930 c-45 -24 -28 -24 25 0 22 10 33 19 25 19 -8 0 -31 -8 -50
-19z"/>
<path d="M4145 1900 c-3 -6 1 -7 9 -4 18 7 21 14 7 14 -6 0 -13 -4 -16 -10z"/>
<path d="M3312 2910 c0 -14 2 -19 5 -12 2 6 2 18 0 25 -3 6 -5 1 -5 -13z"/>
<path d="M4644 2817 c4 -14 1 -16 -19 -11 -27 7 -33 -4 -12 -25 10 -10 8 -15
-7 -27 -11 -7 -22 -11 -25 -8 -3 3 1 9 9 14 8 5 11 12 7 17 -9 9 -28 -17 -24
-32 7 -21 34 -14 48 12 8 15 20 33 26 38 9 7 10 14 2 25 -9 13 -10 12 -5 -3z"/>
<path d="M4470 2802 c0 -15 4 -20 16 -15 9 3 12 9 7 12 -4 3 -11 10 -15 15 -5
5 -8 0 -8 -12z"/>
<path d="M4553 2773 c-15 -5 -17 -23 -4 -23 5 0 11 7 15 15 3 8 4 15 3 14 -1
0 -8 -3 -14 -6z"/>
<path d="M4388 2739 c-10 -11 -15 -19 -10 -19 4 0 2 -4 -4 -8 -14 -9 -59 -96
-47 -90 56 26 63 32 57 50 -7 22 4 60 16 53 12 -7 24 15 14 24 -5 5 -17 0 -26
-10z m-21 -81 c-3 -8 -6 -5 -6 6 -1 11 2 17 5 13 3 -3 4 -12 1 -19z"/>
<path d="M4480 2719 c0 -5 5 -7 10 -4 6 3 10 8 10 11 0 2 -4 4 -10 4 -5 0 -10
-5 -10 -11z"/>
<path d="M4391 2688 c-1 -23 15 -31 36 -19 16 9 16 10 -4 11 -12 0 -24 6 -26
13 -3 7 -6 6 -6 -5z"/>
<path d="M4488 2693 c6 -2 18 -2 25 0 6 3 1 5 -13 5 -14 0 -19 -2 -12 -5z"/>
<path d="M4476 2666 c10 -8 21 -12 24 -10 5 6 -21 24 -34 24 -6 0 -1 -6 10
-14z"/>
<path d="M4455 2640 c-3 -6 1 -7 9 -4 18 7 21 14 7 14 -6 0 -13 -4 -16 -10z"/>
<path d="M4733 2874 c-3 -7 -3 -19 0 -26 4 -8 6 -7 6 4 1 10 7 15 14 12 8 -3
14 1 14 9 0 17 -27 18 -34 1z"/>
<path d="M5218 2693 c-16 -8 -28 -19 -28 -25 0 -5 -7 -8 -15 -4 -22 8 -18 -2
6 -15 12 -6 19 -7 15 -1 -7 12 61 55 75 47 5 -4 9 -1 9 4 0 15 -29 12 -62 -6z"/>
<path d="M5215 2650 c-3 -5 -1 -10 4 -10 6 0 11 5 11 10 0 6 -2 10 -4 10 -3 0
-8 -4 -11 -10z"/>
<path d="M5335 2720 c3 -5 11 -10 16 -10 6 0 7 5 4 10 -3 6 -11 10 -16 10 -6
0 -7 -4 -4 -10z"/>
<path d="M3344 2521 c7 -11 46 -35 46 -28 0 3 -12 12 -26 22 -15 9 -23 12 -20
6z"/>
<path d="M3545 2379 c-5 -14 0 -28 15 -44 16 -17 18 -24 8 -28 -11 -4 -11 -6
0 -6 8 -1 10 -6 6 -13 -6 -10 -5 -10 8 -1 17 15 28 8 28 -19 0 -10 5 -18 10
-18 6 0 10 3 10 6 0 13 -24 49 -43 65 -13 10 -20 28 -20 47 0 36 -12 42 -22
11z"/>
<path d="M3581 2374 c0 -11 3 -14 6 -6 3 7 2 16 -1 19 -3 4 -6 -2 -5 -13z"/>
<path d="M3600 2350 c0 -5 5 -10 11 -10 5 0 7 5 4 10 -3 6 -8 10 -11 10 -2 0
-4 -4 -4 -10z"/>
<path d="M3630 2291 c0 -6 4 -13 10 -16 6 -3 7 1 4 9 -7 18 -14 21 -14 7z"/>
<path d="M3676 2175 c4 -8 8 -15 10 -15 2 0 4 7 4 15 0 8 -4 15 -10 15 -5 0
-7 -7 -4 -15z"/>
<path d="M3721 2074 c0 -11 3 -14 6 -6 3 7 2 16 -1 19 -3 4 -6 -2 -5 -13z"/>
<path d="M3660 2021 c0 -7 -4 -10 -9 -7 -5 3 -11 -1 -15 -9 -3 -8 -2 -15 3
-15 13 0 35 30 27 37 -3 3 -6 1 -6 -6z"/>
<path d="M4550 1357 c0 -3 38 -36 84 -72 59 -46 86 -74 90 -93 3 -15 13 -74
21 -132 18 -120 22 -133 33 -126 9 5 -39 262 -54 288 -5 9 -29 32 -54 50 -25
19 -62 47 -82 62 -21 16 -38 26 -38 23z"/>
<path d="M4275 1232 c61 -43 165 -106 165 -99 0 6 -92 70 -127 90 -33 17 -57
23 -38 9z"/>
<path d="M4916 981 c12 -45 37 -96 41 -84 2 6 -7 33 -22 60 -14 26 -23 37 -19
24z"/>
<path d="M4962 845 c6 -14 15 -25 19 -25 5 0 3 11 -3 25 -6 14 -15 25 -19 25
-5 0 -3 -11 3 -25z"/>
<path d="M1596 1311 c-19 -7 -19 -8 3 -14 30 -8 58 2 39 14 -15 10 -17 10 -42
0z"/>
<path d="M1622 1266 c7 -8 15 -12 17 -11 5 6 -10 25 -20 25 -5 0 -4 -6 3 -14z"/>
<path d="M2041 6089 c-76 -51 -164 -154 -205 -241 l-31 -67 -25 36 c-55 81
-165 145 -250 147 -73 1 -74 -13 -12 -117 27 -45 62 -104 76 -130 15 -26 38
-53 52 -59 l24 -11 -21 -24 c-19 -19 -21 -27 -11 -48 6 -14 16 -25 22 -25 5 0
10 -7 10 -16 0 -8 25 -39 56 -69 55 -52 57 -55 50 -95 -3 -23 -13 -52 -22 -65
-12 -19 -13 -28 -4 -45 9 -17 14 -19 26 -9 8 6 14 24 14 39 0 15 3 49 7 75 5
38 12 51 34 64 21 12 32 29 41 63 l12 47 43 -39 c44 -41 57 -47 68 -30 11 18
22 11 83 -50 63 -62 82 -72 82 -42 0 24 -12 38 -38 46 -26 9 -72 72 -72 101 0
11 9 26 20 33 12 7 20 18 18 25 -1 7 3 21 9 32 6 11 13 37 17 57 6 31 3 39
-16 52 -12 9 -32 16 -43 16 -20 0 -20 1 2 18 26 20 36 57 64 226 18 108 20
129 8 137 -21 13 -21 13 -88 -32z m43 -5 c21 -8 21 -62 -1 -86 -19 -21 -75
-24 -92 -4 -9 10 -8 16 4 26 8 7 13 16 10 20 -3 4 1 7 8 6 6 0 12 2 12 6 0 6
34 36 42 38 1 0 8 -3 17 -6z m-111 -118 c-5 -10 -13 -12 -23 -6 -11 7 -12 11
0 25 16 20 36 4 23 -19z m-384 -27 c17 -6 31 -15 31 -21 0 -6 -8 -7 -17 -3
-40 16 -54 16 -79 0 -15 -9 -23 -12 -20 -6 4 6 1 11 -6 12 -10 0 -10 2 0 6 6
2 10 9 6 14 -7 13 46 11 85 -2z m360 2 c11 -7 9 -14 -12 -35 -43 -43 -67 -25
-29 22 19 24 21 25 41 13z m85 -44 c-15 -107 -20 -115 -101 -167 l-77 -48 61
5 c36 3 68 1 79 -5 16 -10 13 -12 -21 -12 l-40 -1 37 -15 c42 -18 55 -40 34
-63 -10 -11 -12 -21 -5 -34 10 -18 5 -37 -11 -37 -5 0 -22 12 -39 26 -29 24
-45 22 -20 -3 9 -9 7 -11 -8 -7 -11 3 -25 15 -31 27 -24 50 -41 108 -48 155
-6 46 -4 54 26 95 17 25 53 59 80 76 26 17 53 37 60 46 20 24 31 7 24 -38z
m-426 -3 c28 -18 20 -34 -18 -34 -27 0 -60 22 -60 39 0 25 34 22 78 -5z m-35
-47 c23 -8 22 -26 -1 -24 -11 0 -29 17 -42 37 l-23 35 24 -21 c13 -12 32 -24
42 -27z m495 16 c-2 -9 -8 -18 -15 -20 -7 -3 -9 3 -6 16 6 25 26 28 21 4z
m-353 -13 c10 -11 16 -22 14 -25 -7 -7 -52 19 -57 33 -6 19 23 14 43 -8z m17
-54 c46 -17 63 -38 83 -105 6 -20 4 -23 -10 -18 -9 4 -35 7 -57 7 -44 0 -77
27 -112 93 -17 30 -18 38 -6 51 11 14 16 14 34 3 12 -7 42 -21 68 -31z m121
29 c-3 -9 -8 -14 -10 -11 -3 3 -2 9 2 15 9 16 15 13 8 -4z m-215 -94 c3 -8 -1
-12 -9 -9 -7 2 -15 10 -17 17 -3 8 1 12 9 9 7 -2 15 -10 17 -17z m441 -20 c7
-5 10 -14 7 -20 -11 -17 -40 -13 -59 9 -16 19 -16 20 11 20 15 0 33 -4 41 -9z
m-235 -91 l19 -39 -33 -55 c-28 -46 -36 -53 -52 -45 -20 11 -33 51 -24 74 3 9
0 15 -9 15 -24 0 -17 19 15 47 17 13 28 29 24 34 -3 5 5 9 18 9 17 0 28 -11
42 -40z m236 15 c-12 -15 -30 -12 -30 6 0 5 10 9 21 9 18 0 19 -2 9 -15z
m-358 -25 c-18 -31 -62 -43 -62 -16 0 16 38 45 62 45 16 1 16 -1 0 -29z m-12
-81 c-7 -11 -14 -18 -17 -15 -8 8 5 36 17 36 7 0 7 -6 0 -21z m126 -36 c-14
-20 -26 -34 -26 -30 0 10 44 76 48 72 2 -2 -8 -21 -22 -42z m-86 -17 c0 -6 -7
-2 -15 8 -8 11 -15 25 -15 30 0 6 7 2 15 -8 8 -11 15 -25 15 -30z m35 -24 c-3
-3 -11 0 -18 7 -9 10 -8 11 6 5 10 -3 15 -9 12 -12z"/>
<path d="M2055 6070 c-3 -5 -2 -10 4 -10 5 0 13 5 16 10 3 6 2 10 -4 10 -5 0
-13 -4 -16 -10z"/>
<path d="M1380 4054 c-23 -25 -58 -80 -78 -122 -31 -65 -37 -86 -35 -135 l2
-57 -27 15 c-15 8 -35 21 -44 27 -14 10 -20 9 -32 -7 -9 -11 -16 -28 -16 -37
0 -9 -10 -18 -22 -20 -21 -3 -23 -8 -23 -61 0 -68 -9 -77 -77 -77 -43 0 -48
-3 -54 -26 -10 -38 9 -51 49 -35 17 8 50 16 73 18 33 4 46 0 73 -22 l32 -28
64 28 c35 15 68 24 73 21 13 -8 95 15 114 32 13 11 15 19 7 34 -8 14 -4 31 17
74 37 75 46 232 19 315 -18 55 -50 109 -64 109 -5 0 -27 -21 -51 -46z m71 3
c13 -18 49 -135 49 -160 0 -16 -18 -5 -30 18 -7 14 -22 25 -32 25 -11 0 -18 7
-18 19 0 11 -5 23 -10 26 -8 5 -7 12 2 23 16 22 -29 -15 -54 -43 -17 -19 -17
-19 -2 20 15 37 60 95 73 95 3 0 13 -11 22 -23z m-64 -134 c-17 -18 -22 -8
-11 22 5 12 10 13 17 6 8 -8 6 -16 -6 -28z m-43 -30 c-6 -27 -42 -68 -51 -59
-7 7 37 86 47 86 6 0 8 -12 4 -27z m97 -58 c26 -64 28 -144 5 -180 -24 -36
-43 -32 -39 8 3 34 -2 28 -11 -14 -3 -14 -17 -31 -31 -37 -29 -13 -29 -14 -45
62 -16 71 3 172 25 136 11 -17 25 -11 25 11 0 11 10 35 22 52 l22 30 9 -24 c5
-13 13 -33 18 -44z m-203 -142 c20 -25 22 -25 12 -5 -13 27 -8 37 14 29 16 -6
38 -45 51 -87 7 -25 7 -25 -25 5 l-33 30 26 -36 c15 -20 27 -43 27 -52 0 -32
-82 -52 -93 -23 -3 8 -16 16 -29 18 -16 2 -22 9 -20 21 2 10 -2 25 -9 33 -9
11 -8 15 5 20 9 3 23 4 31 0 8 -3 15 -1 15 3 0 5 -5 11 -12 13 -12 4 -4 58 9
58 4 0 18 -12 31 -27z m-108 -3 c0 -5 -2 -10 -4 -10 -3 0 -8 5 -11 10 -3 6 -1
10 4 10 6 0 11 -4 11 -10z"/>
<path d="M1411 3734 c0 -11 3 -14 6 -6 3 7 2 16 -1 19 -3 4 -6 -2 -5 -13z"/>
<path d="M6754 3800 c-68 -52 -92 -92 -90 -151 0 -25 8 -54 16 -64 14 -17 12
-18 -39 -12 -30 4 -62 2 -72 -4 -21 -11 -25 -49 -8 -66 8 -8 8 -17 -1 -33 -6
-12 -9 -32 -6 -45 6 -24 -7 -32 -83 -52 -40 -10 -62 -36 -44 -54 8 -8 29 -1
78 25 72 38 94 43 112 25 9 -9 23 -9 57 0 24 6 52 8 61 5 10 -4 26 3 41 17
l24 23 -5 -35 -5 -34 15 40 c8 22 18 47 21 55 5 13 8 12 19 -3 11 -16 10 -23
-7 -53 -11 -19 -28 -40 -38 -47 -13 -9 -19 -34 -24 -104 -5 -58 -4 -93 2 -93
5 0 12 32 14 71 3 64 7 73 31 91 15 11 27 27 27 35 0 9 11 26 25 39 14 13 25
34 25 49 0 14 4 25 9 25 31 0 151 191 151 239 0 9 5 22 12 29 18 18 -4 15 -32
-4 -54 -36 -189 -179 -141 -150 6 4 11 1 11 -6 0 -10 3 -9 9 2 6 8 8 17 5 21
-2 4 3 12 11 19 13 11 14 10 10 -2 -5 -12 0 -14 19 -11 38 8 33 -14 -13 -57
-25 -24 -49 -37 -65 -37 -29 0 -31 4 -13 32 20 30 6 206 -21 268 -11 26 -27
47 -34 47 -7 0 -36 -18 -64 -40z m51 2 c-83 -51 -118 -120 -78 -153 15 -13 15
-12 5 8 -18 32 -15 48 14 82 29 35 40 34 46 -8 3 -21 1 -28 -9 -24 -7 3 -13
-2 -13 -10 0 -9 -2 -22 -5 -30 -4 -9 1 -13 14 -12 11 1 24 4 27 8 10 10 34
-12 35 -32 1 -9 5 -2 9 14 l7 30 7 -37 c6 -26 3 -50 -9 -82 -22 -58 -43 -77
-56 -53 -6 9 -15 17 -20 17 -23 0 -85 93 -74 111 4 5 0 21 -9 33 -14 23 -13
27 13 63 33 46 89 93 111 93 8 0 1 -8 -15 -18z m33 -29 c4 -56 -30 -70 -41
-17 -3 19 1 28 17 34 11 5 21 9 21 9 1 1 2 -11 3 -26z m187 -113 c-9 -16 -20
-30 -25 -30 -14 0 -13 7 6 35 23 35 38 31 19 -5z m-311 -124 c29 -12 76 -75
58 -77 -31 -3 -53 -11 -89 -30 -41 -22 -42 -23 -62 -5 -19 17 -19 20 -5 31 13
9 14 16 5 33 -16 31 5 39 29 10 22 -26 27 -18 8 12 -11 17 -10 22 2 30 19 12
15 12 54 -4z m219 -51 c-3 -9 -8 -14 -10 -11 -3 3 -2 9 2 15 9 16 15 13 8 -4z
m-33 -14 c0 -18 -17 -20 -36 -6 -18 14 -18 14 9 15 15 0 27 -4 27 -9z"/>
<path d="M1518 3661 c-47 -30 -67 -51 -49 -51 6 0 11 4 11 10 0 5 20 21 45 36
39 22 53 34 42 34 -2 0 -24 -13 -49 -29z"/>
<path d="M2850 2868 c-23 -25 -110 -190 -110 -210 0 -7 23 30 51 82 28 52 60
107 71 123 23 32 17 36 -12 5z"/>
<path d="M1399 2791 c-84 -27 -249 -169 -287 -247 -8 -18 -20 -31 -25 -27 -5
3 -6 -4 -2 -18 4 -13 4 -20 -1 -16 -4 4 -13 -2 -20 -14 -11 -22 -12 -21 -39
22 -45 72 -166 189 -197 189 -15 0 2 -20 36 -41 21 -14 25 -19 11 -17 -23 4
-56 34 -59 56 -3 20 -108 61 -157 61 -21 1 -46 -7 -58 -16 l-22 -18 42 -120
c22 -66 50 -134 60 -152 20 -32 106 -83 140 -83 30 0 29 -16 -2 -34 -16 -9
-36 -31 -44 -47 -15 -29 -15 -31 15 -60 16 -17 30 -38 30 -48 0 -10 9 -26 20
-36 29 -26 25 -58 -15 -105 -39 -47 -45 -84 -16 -100 37 -20 52 -3 81 92 13
42 33 62 64 63 12 0 38 18 59 41 34 38 36 45 26 67 l-12 25 -27 -30 c-16 -17
-33 -27 -39 -23 -7 4 -18 1 -26 -5 -23 -19 -47 -5 -39 24 3 14 -1 37 -10 54
-9 17 -16 36 -16 41 0 16 101 71 130 71 39 0 11 16 -72 40 -67 20 -83 29 -113
66 -37 45 -37 47 10 59 l30 7 -40 34 c-22 19 -49 39 -60 45 -11 6 -2 -5 20
-25 22 -19 43 -35 48 -36 4 0 7 -4 7 -9 0 -11 -62 -23 -82 -16 -16 6 -62 94
-54 103 3 3 38 4 77 4 80 -2 85 -5 198 -108 l64 -59 -2 -111 c-1 -90 2 -114
14 -124 27 -23 40 4 38 74 l-3 63 37 6 c63 11 184 -63 150 -91 -10 -8 -27 -2
-72 27 -82 51 -95 57 -60 27 17 -14 49 -36 73 -48 34 -19 42 -28 42 -50 0 -16
0 -31 0 -35 0 -5 -11 -8 -25 -8 -13 -1 -27 -4 -31 -8 -3 -3 -21 5 -40 19 l-33
26 -7 -27 c-6 -22 0 -33 30 -63 29 -29 44 -37 73 -37 35 0 38 -3 54 -44 33
-90 91 -121 97 -51 3 29 -2 39 -37 72 -46 42 -50 59 -21 95 11 14 20 33 20 43
0 9 9 25 20 35 11 10 20 26 20 36 0 19 -49 64 -82 75 -19 6 -18 8 15 19 54 19
117 74 136 119 10 23 33 94 51 160 25 87 31 123 23 135 -11 18 -73 24 -114 12z
m89 -62 c-3 -8 -7 -3 -11 10 -4 17 -3 21 5 13 5 -5 8 -16 6 -23z m-48 -23 c0
-25 -32 -56 -57 -56 -7 0 -18 10 -24 22 -10 18 -8 24 11 40 12 10 33 18 46 18
19 0 24 -5 24 -24z m-726 -25 c10 -11 15 -24 12 -29 -8 -13 -41 -21 -53 -13
-15 9 -33 48 -26 55 13 13 50 5 67 -13z m604 -11 c-1 -24 -6 -30 -30 -35 -41
-9 -43 -3 -13 34 33 39 44 39 43 1z m-517 -11 c36 -25 37 -40 2 -30 -14 4 -30
17 -34 29 -10 27 -5 28 32 1z m604 -65 c-3 -20 -11 -45 -18 -54 -15 -25 -56
-31 -89 -14 -15 8 -37 14 -50 13 -14 0 -5 -6 25 -15 26 -8 47 -17 47 -20 0 -9
-59 -93 -71 -100 -15 -9 -119 -33 -145 -34 -17 0 -21 6 -22 35 -1 30 8 45 70
112 80 88 124 112 207 112 l53 1 -7 -36z m-31 -123 c7 -10 -22 -37 -30 -28 -9
8 3 37 15 37 5 0 12 -4 15 -9z m-594 -36 c20 -24 5 -28 -21 -6 -19 16 -20 20
-8 21 9 0 22 -7 29 -15z m525 -185 c-3 -5 -13 -10 -21 -10 -8 0 -12 5 -9 10 3
6 13 10 21 10 8 0 12 -4 9 -10z m-440 -30 c3 -5 -3 -10 -14 -10 -12 0 -21 5
-21 10 0 6 6 10 14 10 8 0 18 -4 21 -10z"/>
<path d="M2856 2677 c3 -10 9 -15 12 -12 3 3 0 11 -7 18 -10 9 -11 8 -5 -6z"/>
<path d="M1093 2555 c-3 -9 -3 -18 -1 -21 3 -3 8 4 11 16 6 23 -1 27 -10 5z"/>
<path d="M984 2278 l-19 -23 23 19 c21 18 27 26 19 26 -2 0 -12 -10 -23 -22z"/>
<path d="M6113 2294 c-16 -7 -18 -256 -2 -285 9 -17 13 -18 27 -7 15 11 16 11
4 -4 -9 -11 -10 -18 -2 -23 14 -9 13 -25 -2 -25 -7 0 -24 -9 -37 -19 -20 -15
-22 -21 -12 -39 7 -14 8 -23 1 -27 -17 -10 -11 -36 12 -54 l21 -18 -28 -36
c-15 -21 -35 -37 -45 -37 -28 0 -64 -34 -57 -53 11 -29 29 -19 88 44 52 56 59
61 88 54 24 -5 38 -1 66 21 41 31 41 41 -1 19 -38 -20 -47 -19 -69 5 -16 17
-17 25 -7 59 16 53 35 65 106 71 l61 5 -49 30 c-58 35 -116 83 -116 96 0 5 22
-2 50 -16 69 -35 74 -31 10 8 -44 25 -56 38 -58 61 -3 27 -2 28 25 23 25 -5
26 -4 9 9 -10 7 -23 15 -29 17 -19 6 4 27 29 27 24 0 24 1 8 25 -16 24 -15 25
6 25 37 0 59 -19 86 -75 15 -29 44 -68 65 -85 22 -17 48 -49 59 -71 l21 -39
-26 -28 c-14 -15 -25 -32 -25 -39 0 -7 -20 -21 -44 -31 -52 -23 -74 -49 -32
-38 29 7 31 4 16 -25 -6 -11 -12 -50 -14 -87 -2 -37 -11 -89 -20 -115 -23 -64
-18 -92 14 -92 24 0 25 2 25 70 0 82 7 97 41 91 21 -4 29 2 46 30 12 20 31 37
47 40 46 11 51 22 45 80 l-7 54 33 0 c17 0 46 10 63 22 52 35 117 101 110 111
-3 6 -2 7 4 4 5 -3 22 5 39 19 28 23 28 24 9 36 -57 36 -170 15 -253 -45 -51
-38 -69 -46 -56 -26 3 6 2 14 -3 18 -5 3 -19 31 -32 63 -30 75 -77 128 -148
165 -56 30 -135 48 -160 37z m597 -214 c13 -9 13 -11 0 -20 -24 -16 -39 -12
-33 10 6 22 11 24 33 10z m40 -14 c0 -2 -8 -10 -17 -17 -16 -13 -17 -12 -4 4
13 16 21 21 21 13z m-110 -20 c32 -6 12 -32 -55 -74 -38 -23 -83 -46 -100 -50
-27 -8 -29 -11 -27 -50 3 -34 -1 -46 -25 -69 -15 -15 -35 -38 -44 -50 l-15
-23 -23 24 c-22 23 -22 25 -6 55 9 17 13 36 10 40 -8 14 53 61 73 55 15 -5 15
-4 -1 6 -17 11 -16 14 14 48 48 56 128 104 159 96 14 -3 32 -7 40 -8z"/>
<path d="M6240 2126 c0 -3 9 -10 20 -16 11 -6 20 -8 20 -6 0 3 -9 10 -20 16
-11 6 -20 8 -20 6z"/>
<path d="M4722 1730 c0 -14 2 -19 5 -12 2 6 2 18 0 25 -3 6 -5 1 -5 -13z"/>
<path d="M1380 1626 c0 -2 7 -7 16 -10 8 -3 12 -2 9 4 -6 10 -25 14 -25 6z"/>
<path d="M1435 1590 c10 -11 20 -20 23 -20 3 0 -3 9 -13 20 -10 11 -20 20 -23
20 -3 0 3 -9 13 -20z"/>
<path d="M1240 1506 c0 -2 7 -7 16 -10 8 -3 12 -2 9 4 -6 10 -25 14 -25 6z"/>
<path d="M5850 1470 c8 -5 20 -10 25 -10 6 0 3 5 -5 10 -8 5 -19 10 -25 10 -5
0 -3 -5 5 -10z"/>
<path d="M6050 1440 c0 -6 4 -10 10 -10 5 0 18 -17 29 -37 11 -21 20 -32 21
-25 0 21 -28 69 -45 75 -8 4 -15 2 -15 -3z"/>
<path d="M6012 1401 c-12 -21 -22 -43 -22 -47 0 -5 12 11 25 35 14 24 24 45
22 47 -2 2 -13 -14 -25 -35z"/>
<path d="M6160 1379 c-22 -18 -22 -19 -3 -10 12 6 25 16 28 21 9 15 3 12 -25
-11z"/>
<path d="M1070 1236 c0 -2 7 -7 16 -10 8 -3 12 -2 9 4 -6 10 -25 14 -25 6z"/>
<path d="M640 1201 c0 -6 5 -13 10 -16 6 -3 10 1 10 9 0 9 -4 16 -10 16 -5 0
-10 -4 -10 -9z"/>
<path d="M718 1193 c7 -3 16 -2 19 1 4 3 -2 6 -13 5 -11 0 -14 -3 -6 -6z"/>
<path d="M674 1172 c8 -13 66 -56 66 -49 0 3 -17 17 -37 33 -20 15 -33 23 -29
16z"/>
<path d="M857 1139 c12 -12 24 -21 27 -18 2 2 -8 13 -22 23 l-27 19 22 -24z"/>
<path d="M518 1093 c7 -3 16 -2 19 1 4 3 -2 6 -13 5 -11 0 -14 -3 -6 -6z"/>
<path d="M780 1089 c0 -5 5 -7 10 -4 6 3 10 8 10 11 0 2 -4 4 -10 4 -5 0 -10
-5 -10 -11z"/>
<path d="M438 1083 c-19 -5 -24 -28 -8 -38 5 -3 7 0 4 8 -3 10 4 18 23 25 28
10 14 14 -19 5z"/>
<path d="M578 1083 c7 -3 16 -2 19 1 4 3 -2 6 -13 5 -11 0 -14 -3 -6 -6z"/>
<path d="M5374 1081 c7 -10 31 -9 42 2 4 4 -5 7 -20 7 -15 0 -25 -4 -22 -9z"/>
<path d="M770 1061 c0 -5 5 -13 10 -16 6 -3 10 -2 10 4 0 5 -4 13 -10 16 -5 3
-10 2 -10 -4z"/>
<path d="M671 1048 c9 -7 18 -20 21 -27 4 -13 5 -12 10 1 4 11 -2 19 -20 27
-22 9 -24 9 -11 -1z"/>
<path d="M6153 1028 c15 -5 27 -15 27 -20 0 -6 3 -8 6 -5 11 11 -17 37 -40 36
-18 0 -17 -2 7 -11z"/>
<path d="M4331 657 c2 -1 13 -9 24 -17 19 -14 19 -14 6 3 -7 9 -18 17 -24 17
-6 0 -8 -1 -6 -3z"/>
<path d="M4108 643 c7 -3 16 -2 19 1 4 3 -2 6 -13 5 -11 0 -14 -3 -6 -6z"/>
<path d="M4066 627 c-17 -13 -17 -14 0 -28 12 -9 15 -10 10 -1 -4 7 -2 19 4
27 15 18 9 19 -14 2z"/>
<path d="M4238 603 c7 -3 16 -2 19 1 4 3 -2 6 -13 5 -11 0 -14 -3 -6 -6z"/>
</g>
</svg>
